# This file uses centimeters as units for non-parametric coordinates.

mtllib number_nine.mtl
g default
v -0.500000 -0.033990 0.500000
v -0.500000 0.966011 0.500000
v 0.500000 0.966011 0.500000
v -0.500000 1.966010 0.500000
v 0.500000 1.966010 0.500000
v -0.500000 2.966010 0.500000
v 0.500000 2.966010 0.500000
v -0.500000 3.966011 0.500000
v 0.500000 3.966011 0.500000
v -0.500000 4.966011 0.500000
v 0.500000 4.966011 0.500000
v -0.500000 5.966010 0.500000
v 0.500000 5.966010 0.500000
v -0.500000 6.966012 0.500000
v -0.500000 6.966012 -0.500000
v -0.500000 5.966010 -0.500000
v 0.500000 5.966010 -0.500000
v -0.500000 4.966011 -0.500000
v 0.500000 4.966011 -0.500000
v -0.500000 3.966011 -0.500000
v 0.500000 3.966011 -0.500000
v -0.500000 2.966010 -0.500000
v 0.500000 2.966010 -0.500000
v -0.500000 1.966010 -0.500000
v 0.500000 1.966010 -0.500000
v -0.500000 0.966011 -0.500000
v 0.500000 0.966011 -0.500000
v -0.500000 -0.033990 -0.500000
v -3.458001 3.966011 0.500000
v -3.458001 3.966011 -0.500000
v -3.458001 5.966010 -0.500000
v -3.458001 5.966010 0.500000
v -2.432914 3.966011 0.500000
v -2.432914 2.966010 0.500000
v -2.432914 2.966010 -0.500000
v -2.432914 3.966011 -0.500000
v -2.422719 5.966010 0.500000
v -2.422719 5.966010 -0.500000
v -2.422719 6.966012 -0.500000
v -2.422719 6.966012 0.500000
v 0.161654 6.966012 0.500000
v 0.312512 6.903525 0.500000
v 0.312512 6.903525 -0.500000
v 0.161654 6.966012 -0.500000
v 0.437513 6.778524 0.500000
v 0.500000 6.627666 0.500000
v 0.500000 6.627666 -0.500000
v 0.437513 6.778524 -0.500000
v 0.500000 0.304356 0.500000
v 0.437512 0.153498 0.500000
v 0.437512 0.153498 -0.500000
v 0.500000 0.304356 -0.500000
v 0.312512 0.028497 0.500000
v 0.161654 -0.033990 0.500000
v 0.161654 -0.033990 -0.500000
v 0.312512 0.028497 -0.500000
v -3.458001 3.304357 -0.500000
v -3.395514 3.153498 -0.500000
v -3.395514 3.153498 0.500000
v -3.458001 3.304357 0.500000
v -3.270514 3.028498 -0.500000
v -3.119655 2.966010 -0.500000
v -3.119655 2.966010 0.500000
v -3.270514 3.028498 0.500000
v -3.458001 6.627666 0.500000
v -3.395514 6.778524 0.500000
v -3.395514 6.778524 -0.500000
v -3.458001 6.627666 -0.500000
v -3.270514 6.903525 0.500000
v -3.119655 6.966012 0.500000
v -3.119655 6.966012 -0.500000
v -3.270514 6.903525 -0.500000
v -3.437980 0.304356 -0.500000
v -3.375493 0.153498 -0.500000
v -3.375493 0.153498 0.500000
v -3.437980 0.304356 0.500000
v -3.250493 0.028497 -0.500000
v -3.099635 -0.033990 -0.500000
v -3.099635 -0.033990 0.500000
v -3.250493 0.028497 0.500000
v -3.437980 0.627664 0.500000
v -3.375493 0.778523 0.500000
v -3.375493 0.778523 -0.500000
v -3.437980 0.627664 -0.500000
v -3.250493 0.903523 0.500000
v -3.099635 0.966011 0.500000
v -3.099635 0.966011 -0.500000
v -3.250493 0.903523 -0.500000
vt 0.375000 0.071429
vt 0.625000 0.071429
vt 0.375000 0.107143
vt 0.625000 0.107143
vt 0.375000 0.142857
vt 0.625000 0.142857
vt 0.375000 0.178571
vt 0.625000 0.178571
vt 0.375000 0.214286
vt 0.375000 0.250000
vt 0.625000 0.535714
vt 0.375000 0.571429
vt 0.625000 0.571429
vt 0.375000 0.607143
vt 0.625000 0.607143
vt 0.375000 0.642857
vt 0.625000 0.642857
vt 0.375000 0.678571
vt 0.625000 0.678571
vt 0.375000 0.714286
vt 0.875000 0.071429
vt 0.875000 0.107143
vt 0.875000 0.142857
vt 0.875000 0.178571
vt 0.125000 0.071429
vt 0.125000 0.107143
vt 0.125000 0.142857
vt 0.125000 0.178571
vt 0.125000 0.214286
vt 0.125000 0.250000
vt 0.125000 0.142857
vt 0.375000 0.142857
vt 0.375000 0.107143
vt 0.125000 0.107143
vt 0.125000 0.142857
vt 0.125003 0.214308
vt 0.125000 0.250000
vt 0.375000 0.250000
vt 0.374996 0.142857
vt 0.125004 0.142857
vt 0.125004 0.142857
vt 0.374995 0.142857
vt 0.609378 0.506696
vt 0.625000 0.512084
vt 0.375000 0.535714
vt 0.540414 0.000000
vt 0.578127 0.002232
vt 0.625000 0.714286
vt 0.625000 0.737916
vt 0.375000 0.750000
vt 0.375000 0.142857
vt 0.374997 0.214308
vt 0.374995 0.214317
vt 0.125004 0.214322
vt 0.375000 0.035714
vt 0.125000 0.000000
vt 0.540413 0.250000
vt 0.375000 0.500000
vt 0.578128 0.502232
vt 0.609378 0.243304
vt 0.625000 0.214286
vt 0.875000 0.214286
vt 0.875000 0.237916
vt 0.625000 0.012084
vt 0.875000 0.035714
vt 0.625000 0.035714
vt 0.609378 0.743304
vt 0.609378 1.000000
vt 0.578128 1.000000
vt 0.540413 0.750000
vt 0.375000 1.000000
vt 0.125000 0.119227
vt 0.375000 0.113839
vt 0.125000 0.109375
vt 0.375000 0.107143
vt 0.374998 0.237927
vt 0.125001 0.243311
vt 0.375000 0.247770
vt 0.125000 0.250000
vt 0.375000 0.006696
vt 0.125000 0.002232
vt 0.375000 0.000000
vt 0.375000 0.000000
vt 0.125000 0.012084
vt 0.375000 0.023631
vt 0.125000 0.029018
vt 0.375000 0.033483
vt 0.125000 0.035714
vt 0.125000 0.035714
vt 0.578128 0.247768
vt 0.540413 0.500000
vt 0.625000 0.237916
vt 0.875000 0.241072
vt 0.609378 0.006696
vt 0.875000 0.008928
vt 0.875000 0.012084
vt 0.540413 1.000000
vt 0.578128 0.747768
vt 0.125000 0.113839
vt 0.375000 0.119227
vt 0.125000 0.107143
vt 0.375000 0.109375
vt 0.374999 0.243310
vt 0.125001 0.237928
vt 0.375000 0.250000
vt 0.125000 0.247771
vt 0.125000 0.006696
vt 0.375000 0.012084
vt 0.125000 0.000000
vt 0.375000 0.002232
vt 0.375000 0.029018
vt 0.125000 0.023631
vt 0.375000 0.035714
vt 0.125000 0.033483
vn 0.000000 0.000000 1.000000
vn 0.000000 0.000000 1.000000
vn 0.000000 0.000000 1.000000
vn 0.000000 0.000000 1.000000
vn 0.000000 0.000000 1.000000
vn 0.000000 0.000000 1.000000
vn 0.000000 0.000000 1.000000
vn 0.000000 0.000000 1.000000
vn 0.000000 0.000000 1.000000
vn 0.000000 0.000000 1.000000
vn 0.000000 0.000000 1.000000
vn 0.000000 0.000000 1.000000
vn 0.000000 0.000000 1.000000
vn 0.000000 0.000000 1.000000
vn 0.000000 0.000000 1.000000
vn 0.000000 0.000000 1.000000
vn 0.000000 0.000000 1.000000
vn 0.000000 0.000000 1.000000
vn 0.000000 0.000000 1.000000
vn 0.000000 0.000000 1.000000
vn 0.000000 0.000000 1.000000
vn 0.000000 0.000000 1.000000
vn 0.000000 1.000000 0.000000
vn 0.076680 0.997056 0.000000
vn 0.076680 0.997056 0.000000
vn 0.000000 1.000000 0.000000
vn 0.000000 0.000000 -1.000000
vn 0.000000 0.000000 -1.000000
vn 0.000000 0.000000 -1.000000
vn 0.000000 0.000000 -1.000000
vn 0.000000 0.000000 -1.000000
vn 0.000000 0.000000 -1.000000
vn 0.000000 0.000000 -1.000000
vn 0.000000 0.000000 -1.000000
vn 0.000000 0.000000 -1.000000
vn 0.000000 0.000000 -1.000000
vn 0.000000 0.000000 -1.000000
vn 0.000000 0.000000 -1.000000
vn 0.000000 0.000000 -1.000000
vn 0.000000 0.000000 -1.000000
vn 0.000000 0.000000 -1.000000
vn 0.000000 0.000000 -1.000000
vn 0.000000 0.000000 -1.000000
vn 0.000000 0.000000 -1.000000
vn 0.000000 0.000000 -1.000000
vn 0.000000 0.000000 -1.000000
vn 0.000000 0.000000 -1.000000
vn 0.000000 0.000000 -1.000000
vn 0.000000 -1.000000 0.000000
vn 0.076681 -0.997056 0.000000
vn 0.076681 -0.997056 0.000000
vn 0.000000 -1.000000 0.000000
vn 0.997056 -0.076680 0.000000
vn 0.997056 -0.076680 0.000000
vn 1.000000 0.000000 0.000000
vn 1.000000 0.000000 0.000000
vn 1.000000 0.000000 0.000000
vn 1.000000 0.000000 0.000000
vn 1.000000 0.000000 0.000000
vn 1.000000 0.000000 0.000000
vn 1.000000 0.000000 0.000000
vn 1.000000 0.000000 0.000000
vn 1.000000 0.000000 0.000000
vn 1.000000 0.000000 0.000000
vn 1.000000 0.000000 0.000000
vn 1.000000 0.000000 0.000000
vn 0.997056 0.076680 0.000000
vn 0.997056 0.076680 0.000000
vn -0.991428 -0.130654 0.000000
vn -0.991428 -0.130654 0.000000
vn -0.991428 0.130654 0.000000
vn -0.991428 0.130654 0.000000
vn -1.000000 0.000000 0.000000
vn -1.000000 0.000000 0.000000
vn -1.000000 0.000000 0.000000
vn -1.000000 0.000000 0.000000
vn -1.000000 0.000000 0.000000
vn -1.000000 0.000000 0.000000
vn -0.997056 -0.076680 0.000000
vn -0.997056 -0.076680 0.000000
vn -1.000000 0.000000 0.000000
vn -1.000000 0.000000 0.000000
vn -1.000000 0.000000 0.000000
vn -1.000000 0.000000 0.000000
vn -1.000000 0.000000 0.000000
vn -1.000000 0.000000 0.000000
vn -1.000000 0.000000 0.000000
vn -1.000000 0.000000 0.000000
vn -1.000000 0.000000 0.000000
vn -1.000000 0.000000 0.000000
vn -0.997056 0.076680 0.000000
vn -0.997056 0.076680 0.000000
vn 0.000000 -1.000000 0.000000
vn 0.000000 -1.000000 0.000000
vn 0.000000 -1.000000 0.000000
vn 0.000000 -1.000000 0.000000
vn 0.000000 0.000000 1.000000
vn 0.000000 0.000000 1.000000
vn 0.000000 1.000000 0.000000
vn 0.000000 1.000000 0.000000
vn 0.000000 1.000000 0.000000
vn 0.000000 1.000000 0.000000
vn 0.000000 0.000000 -1.000000
vn 0.000000 0.000000 -1.000000
vn 0.000000 -1.000000 0.000000
vn 0.000000 -1.000000 0.000000
vn 0.000000 -1.000000 0.000000
vn 0.000000 -1.000000 0.000000
vn 0.000000 0.000000 1.000000
vn 0.000000 0.000000 1.000000
vn 0.000000 1.000000 0.000000
vn 0.000000 1.000000 0.000000
vn 0.000000 0.000000 -1.000000
vn 0.000000 0.000000 -1.000000
vn 0.000000 0.000000 1.000000
vn 0.000000 0.000000 1.000000
vn 0.000000 0.000000 1.000000
vn 0.000000 0.000000 1.000000
vn 0.000000 0.000000 1.000000
vn -0.074396 -0.997229 0.000000
vn -0.074396 -0.997229 0.000000
vn 0.000000 0.000000 -1.000000
vn 0.000000 0.000000 -1.000000
vn 0.000000 0.000000 -1.000000
vn 0.000000 0.000000 -1.000000
vn 0.000000 0.000000 -1.000000
vn 0.000000 1.000000 0.000000
vn 0.000000 1.000000 0.000000
vn 0.000000 1.000000 0.000000
vn 0.000000 1.000000 0.000000
vn 0.000000 -1.000000 0.000000
vn 0.000000 -1.000000 0.000000
vn 0.000000 -1.000000 0.000000
vn 0.000000 -1.000000 0.000000
vn 0.000000 0.000000 -1.000000
vn 0.000000 0.000000 -1.000000
vn 0.000000 0.000000 -1.000000
vn 0.000000 0.000000 -1.000000
vn 0.000000 0.000000 -1.000000
vn -0.073507 0.997295 0.000000
vn -0.073507 0.997295 0.000000
vn 0.000000 0.000000 1.000000
vn 0.000000 0.000000 1.000000
vn 0.000000 0.000000 1.000000
vn 0.000000 0.000000 1.000000
vn 0.000000 0.000000 1.000000
vn 0.999987 -0.005097 0.000000
vn 0.999987 -0.005097 0.000000
vn 0.999987 -0.005097 0.000000
vn 0.999987 -0.005097 0.000000
vn 0.000000 0.000000 -1.000000
vn 0.000000 0.000000 -1.000000
vn -1.000000 0.000000 0.000000
vn -1.000000 0.000000 0.000000
vn 0.000000 0.000000 1.000000
vn 0.000000 0.000000 1.000000
vn -0.022713 -0.999742 0.000000
vn -0.022713 -0.999742 0.000000
vn 0.000000 0.000000 1.000000
vn 0.000000 0.000000 1.000000
vn 0.000000 0.000000 1.000000
vn 0.000000 0.000000 1.000000
vn 0.000000 0.000000 1.000000
vn 0.000000 0.000000 1.000000
vn 0.000000 0.000000 1.000000
vn 0.000000 0.000000 1.000000
vn 0.000000 1.000000 0.000000
vn 0.000000 1.000000 0.000000
vn -0.022713 0.999742 0.000000
vn -0.022713 0.999742 0.000000
vn 0.000000 0.000000 -1.000000
vn 0.000000 0.000000 -1.000000
vn 0.000000 0.000000 -1.000000
vn 0.000000 0.000000 -1.000000
vn 0.000000 0.000000 -1.000000
vn 0.000000 0.000000 -1.000000
vn 0.000000 0.000000 -1.000000
vn 0.000000 0.000000 -1.000000
vn 0.562114 0.827060 0.000000
vn 0.562114 0.827060 0.000000
vn 0.827061 0.562113 0.000000
vn 0.827061 0.562113 0.000000
vn 0.827060 -0.562113 0.000000
vn 0.827060 -0.562113 0.000000
vn 0.562114 -0.827060 0.000000
vn 0.562114 -0.827060 0.000000
vn -0.827061 -0.562112 0.000000
vn -0.827061 -0.562112 0.000000
vn -0.562113 -0.827060 0.000000
vn -0.562113 -0.827060 0.000000
vn -0.827061 0.562113 0.000000
vn -0.827061 0.562113 0.000000
vn -0.562114 0.827060 0.000000
vn -0.562114 0.827060 0.000000
vn -0.827061 -0.562113 0.000000
vn -0.827061 -0.562113 0.000000
vn -0.562114 -0.827060 0.000000
vn -0.562114 -0.827060 0.000000
vn -0.827061 0.562112 0.000000
vn -0.827061 0.562112 0.000000
vn -0.562114 0.827060 0.000000
vn -0.562114 0.827060 0.000000
s 1
g pCube1
usemtl initialShadingGroup
f 1/82/1 54/46/2 53/47/3 50/94/4 49/64/5 3/66/6 2/55/7
f 2/55/7 3/66/6 5/2/8 4/1/9
f 4/1/9 5/2/8 7/4/10 6/3/11
f 6/3/11 7/4/10 9/6/12 8/5/13
f 8/5/13 9/6/12 11/8/14 10/7/15
f 10/7/15 11/8/14 13/61/16 12/9/17
f 12/9/17 13/61/16 46/92/18 45/60/19 42/90/20 41/57/21 14/10/22
s 2
f 14/10/23 41/57/24 44/91/25 15/58/26
s 3
f 15/58/27 44/91/28 43/59/29 48/43/30 47/44/31 17/11/32 16/45/33
f 16/45/33 17/11/32 19/13/34 18/12/35
f 18/12/35 19/13/34 21/15/36 20/14/37
f 20/14/37 21/15/36 23/17/38 22/16/39
f 22/16/39 23/17/38 25/19/40 24/18/41
f 24/18/41 25/19/40 27/48/42 26/20/43
f 26/20/43 27/48/42 52/49/44 51/67/45 56/98/46 55/70/47 28/50/48
s 2
f 28/50/49 55/70/50 54/97/51 1/71/52
f 49/64/53 52/96/54 27/65/55 3/66/56
f 3/66/56 27/65/55 25/21/57 5/2/58
f 5/2/58 25/21/57 23/22/59 7/4/60
f 7/4/60 23/22/59 21/23/61 9/6/62
f 9/6/62 21/23/61 19/24/63 11/8/64
f 11/8/64 19/24/63 17/62/65 13/61/66
f 13/61/66 17/62/65 47/63/67 46/92/68
f 73/84/69 76/108/70 81/85/71 84/112/72
s 7
f 26/88/73 2/55/74 4/1/75 24/25/76
f 24/25/76 4/1/75 6/3/77 22/26/78
s 8
f 57/72/79 60/100/80 29/51/81 30/31/82
s 9
f 20/27/83 8/5/84 10/7/85 18/28/86
f 18/28/86 10/7/85 12/9/87 16/29/88
s 2
f 31/54/89 32/53/90 65/76/91 68/104/92
s 8
f 22/26/93 6/3/94 34/33/95 35/34/96
s 1
f 6/3/11 8/5/13 33/32/97 34/33/98
s off
f 8/5/99 20/27/100 36/35/101 33/32/102
s 3
f 20/27/37 22/26/39 35/34/103 36/35/104
s off
f 16/29/105 12/9/106 37/52/107 38/36/108
s 1
f 12/9/17 14/10/22 40/38/109 37/52/110
s 2
f 14/10/23 15/30/26 39/37/111 40/38/112
s 3
f 15/30/27 16/29/33 38/36/113 39/37/114
s 1
f 34/33/98 33/32/97 29/51/115 60/100/116 59/73/117 64/102/118 63/75/119
s 8
f 35/34/96 34/33/95 63/75/120 62/101/121
s 3
f 36/35/104 35/34/103 62/101/122 61/74/123 58/99/124 57/72/125 30/31/126
s off
f 37/39/127 38/40/128 31/41/129 32/42/130
f 38/36/131 37/52/132 32/53/133 31/54/134
s 3
f 39/37/114 38/36/113 31/54/135 68/104/136 67/77/137 72/106/138 71/79/139
s 2
f 40/38/112 39/37/111 71/79/140 70/105/141
s 1
f 37/52/110 40/38/109 70/105/142 69/78/143 66/103/144 65/76/145 32/53/146
s off
f 33/32/147 36/35/148 38/40/149 37/39/150
s 3
f 36/35/104 30/31/126 31/41/151 38/40/152
s 8
f 30/31/82 29/51/81 32/42/153 31/41/154
s 1
f 29/51/115 33/32/97 37/39/155 32/42/156
s 2
f 28/56/49 1/82/52 79/83/157 78/109/158
s 1
f 1/82/1 2/55/7 86/113/159 85/87/160 82/111/161 81/85/162 76/108/163 75/80/164 80/110/165 79/83/166
s 2
f 2/55/167 26/88/168 87/89/169 86/113/170
s 3
f 26/88/43 28/56/48 78/109/171 77/81/172 74/107/173 73/84/174 84/112/175 83/86/176 88/114/177 87/89/178
s 2
f 43/59/179 42/90/180 45/60/181 48/43/182
f 51/67/183 50/68/184 53/69/185 56/98/186
s 8
f 59/73/187 58/99/188 61/74/189 64/102/190
s 2
f 67/77/191 66/103/192 69/78/193 72/106/194
f 75/80/195 74/107/196 77/81/197 80/110/198
f 83/86/199 82/111/200 85/87/201 88/114/202
f 41/57/24 42/90/180 43/59/179 44/91/25
f 45/60/181 46/92/68 47/63/67 48/93/182
f 49/64/53 50/94/184 51/95/183 52/96/54
f 53/69/185 54/97/51 55/70/50 56/98/186
s 8
f 57/72/79 58/99/188 59/73/187 60/100/80
f 61/74/189 62/101/121 63/75/120 64/102/190
s 2
f 65/76/91 66/103/192 67/77/191 68/104/92
f 69/78/193 70/105/141 71/79/140 72/106/194
f 73/84/69 74/107/196 75/80/195 76/108/70
f 77/81/197 78/109/158 79/83/157 80/110/198
f 81/85/71 82/111/200 83/86/199 84/112/72
f 85/87/201 86/113/170 87/89/169 88/114/202
