# This file uses centimeters as units for non-parametric coordinates.

mtllib number_three.mtl
g default
v -0.250000 0.075028 0.250000
v -0.250000 0.503599 0.250000
v 0.250000 0.503599 0.250000
v -0.250000 0.932171 0.250000
v 0.250000 0.932171 0.250000
v -0.250000 1.360743 0.250000
v 0.250000 1.360743 0.250000
v -0.250000 1.789314 0.250000
v 0.250000 1.789314 0.250000
v -0.250000 2.217885 0.250000
v 0.250000 2.217885 0.250000
v -0.250000 2.646456 0.250000
v 0.250000 2.646456 0.250000
v -0.250000 3.075028 0.250000
v -0.250000 3.075028 -0.250000
v -0.250000 2.646456 -0.250000
v 0.250000 2.646456 -0.250000
v -0.250000 2.217885 -0.250000
v 0.250000 2.217885 -0.250000
v -0.250000 1.789314 -0.250000
v 0.250000 1.789314 -0.250000
v -0.250000 1.360743 -0.250000
v 0.250000 1.360743 -0.250000
v -0.250000 0.932171 -0.250000
v 0.250000 0.932171 -0.250000
v -0.250000 0.503599 -0.250000
v 0.250000 0.503599 -0.250000
v -0.250000 0.075028 -0.250000
v -0.250000 0.503599 0.250000
v 0.250000 0.503599 0.250000
v 0.250000 0.932171 0.250000
v -0.250000 0.932171 0.250000
v 0.104995 3.075028 0.250000
v 0.169648 3.048248 0.250000
v 0.169648 3.048248 -0.250000
v 0.104995 3.075028 -0.250000
v 0.223220 2.994676 0.250000
v 0.250000 2.930023 0.250000
v 0.250000 2.930023 -0.250000
v 0.223220 2.994676 -0.250000
v 0.250000 0.220033 0.250000
v 0.223220 0.155380 0.250000
v 0.223220 0.155380 -0.250000
v 0.250000 0.220033 -0.250000
v 0.169648 0.101808 0.250000
v 0.104995 0.075028 0.250000
v 0.104995 0.075028 -0.250000
v 0.169648 0.101808 -0.250000
v -1.688180 0.220033 -0.250000
v -1.661400 0.155380 -0.250000
v -1.661400 0.155380 0.250000
v -1.688180 0.220033 0.250000
v -1.607828 0.101808 -0.250000
v -1.543175 0.075028 -0.250000
v -1.543175 0.075028 0.250000
v -1.607828 0.101808 0.250000
v -1.688180 0.358595 0.250000
v -1.661400 0.423248 0.250000
v -1.661400 0.423248 -0.250000
v -1.688180 0.358595 -0.250000
v -1.607828 0.476819 0.250000
v -1.543175 0.503599 0.250000
v -1.543175 0.503599 -0.250000
v -1.607828 0.476819 -0.250000
v -1.688180 1.505748 -0.250000
v -1.661400 1.441094 -0.250000
v -1.661400 1.441094 0.250000
v -1.688180 1.505748 0.250000
v -1.607828 1.387523 -0.250000
v -1.543175 1.360743 -0.250000
v -1.543175 1.360743 0.250000
v -1.607828 1.387523 0.250000
v -1.688180 1.644309 0.250000
v -1.661400 1.708962 0.250000
v -1.661400 1.708962 -0.250000
v -1.688180 1.644309 -0.250000
v -1.607828 1.762534 0.250000
v -1.543175 1.789314 0.250000
v -1.543175 1.789314 -0.250000
v -1.607828 1.762534 -0.250000
v -1.688180 2.791462 -0.250000
v -1.661400 2.726809 -0.250000
v -1.661400 2.726809 0.250000
v -1.688180 2.791462 0.250000
v -1.607828 2.673237 -0.250000
v -1.543175 2.646456 -0.250000
v -1.543175 2.646456 0.250000
v -1.607828 2.673237 0.250000
v -1.688180 2.930023 0.250000
v -1.661400 2.994676 0.250000
v -1.661400 2.994676 -0.250000
v -1.688180 2.930023 -0.250000
v -1.607828 3.048248 0.250000
v -1.543175 3.075028 0.250000
v -1.543175 3.075028 -0.250000
v -1.607828 3.048248 -0.250000
vt 0.375000 0.071429
vt 0.625000 0.071429
vt 0.625000 0.107143
vt 0.625000 0.142857
vt 0.375000 0.178571
vt 0.625000 0.178571
vt 0.625000 0.535714
vt 0.375000 0.571429
vt 0.625000 0.571429
vt 0.375000 0.607143
vt 0.625000 0.607143
vt 0.375000 0.642857
vt 0.625000 0.642857
vt 0.375000 0.678571
vt 0.625000 0.678571
vt 0.375000 0.714286
vt 0.875000 0.071429
vt 0.875000 0.107143
vt 0.875000 0.142857
vt 0.875000 0.178571
vt 0.125000 0.071429
vt 0.125000 0.178571
vt 0.375000 0.035714
vt 0.625000 0.035714
vt 0.625000 0.071429
vt 0.375000 0.071429
vt 0.611610 0.506696
vt 0.625000 0.512084
vt 0.375000 0.535714
vt 0.552497 0.000000
vt 0.584824 0.002232
vt 0.625000 0.714286
vt 0.625000 0.737916
vt 0.375000 0.750000
vt 0.375000 0.035714
vt 0.125000 0.000000
vt 0.375000 0.142857
vt 0.125000 0.107143
vt 0.375000 0.250000
vt 0.125000 0.214286
vt 0.552497 0.250000
vt 0.375000 0.500000
vt 0.584824 0.502232
vt 0.611610 0.243304
vt 0.625000 0.214286
vt 0.875000 0.214286
vt 0.875000 0.237916
vt 0.625000 0.012084
vt 0.875000 0.035714
vt 0.625000 0.035714
vt 0.611610 0.743304
vt 0.611610 1.000000
vt 0.584824 1.000000
vt 0.552497 0.750000
vt 0.375000 1.000000
vt 0.375000 0.006696
vt 0.125000 0.002232
vt 0.375000 0.000000
vt 0.375000 0.000000
vt 0.125000 0.012084
vt 0.375000 0.023631
vt 0.125000 0.029018
vt 0.375000 0.033483
vt 0.125000 0.035714
vt 0.125000 0.035714
vt 0.375000 0.113839
vt 0.125000 0.109375
vt 0.375000 0.107143
vt 0.375000 0.107143
vt 0.125000 0.119227
vt 0.375000 0.130773
vt 0.125000 0.136161
vt 0.375000 0.140625
vt 0.125000 0.142857
vt 0.125000 0.142857
vt 0.375000 0.220982
vt 0.125000 0.216517
vt 0.375000 0.214286
vt 0.375000 0.214286
vt 0.125000 0.226370
vt 0.375000 0.237916
vt 0.125000 0.243304
vt 0.375000 0.247768
vt 0.125000 0.250000
vt 0.125000 0.250000
vt 0.584824 0.247768
vt 0.552497 0.500000
vt 0.625000 0.237916
vt 0.875000 0.241072
vt 0.611610 0.006696
vt 0.875000 0.008928
vt 0.875000 0.012084
vt 0.552497 1.000000
vt 0.584824 0.747768
vt 0.125000 0.006696
vt 0.375000 0.012084
vt 0.125000 0.000000
vt 0.375000 0.002232
vt 0.375000 0.029018
vt 0.125000 0.023631
vt 0.375000 0.035714
vt 0.125000 0.033483
vt 0.125000 0.113839
vt 0.375000 0.119227
vt 0.125000 0.107143
vt 0.375000 0.109375
vt 0.375000 0.136161
vt 0.125000 0.130773
vt 0.375000 0.142857
vt 0.125000 0.140625
vt 0.125000 0.220982
vt 0.375000 0.226370
vt 0.125000 0.214286
vt 0.375000 0.216517
vt 0.375000 0.243304
vt 0.125000 0.237916
vt 0.375000 0.250000
vt 0.125000 0.247768
vn 0.000000 0.000000 1.000000
vn 0.000000 0.000000 1.000000
vn 0.000000 0.000000 1.000000
vn 0.000000 0.000000 1.000000
vn 0.000000 0.000000 1.000000
vn 0.000000 0.000000 1.000000
vn 0.000000 0.000000 1.000000
vn 0.000000 0.000000 1.000000
vn 0.000000 0.000000 1.000000
vn 0.000000 0.000000 1.000000
vn 0.000000 0.000000 1.000000
vn 0.000000 0.000000 1.000000
vn 0.000000 0.000000 1.000000
vn 0.000000 0.000000 1.000000
vn 0.000000 0.000000 1.000000
vn 0.000000 0.000000 1.000000
vn 0.000000 0.000000 1.000000
vn 0.000000 0.000000 1.000000
vn 0.000000 0.000000 1.000000
vn 0.000000 0.000000 1.000000
vn 0.000000 0.000000 1.000000
vn 0.000000 0.000000 1.000000
vn 0.000000 0.000000 1.000000
vn 0.000000 0.000000 1.000000
vn 0.000000 0.000000 1.000000
vn 0.000000 0.000000 1.000000
vn 0.000000 1.000000 0.000000
vn 0.063686 0.997970 0.000000
vn 0.063686 0.997970 0.000000
vn 0.000000 1.000000 0.000000
vn 0.000000 0.000000 -1.000000
vn 0.000000 0.000000 -1.000000
vn 0.000000 0.000000 -1.000000
vn 0.000000 0.000000 -1.000000
vn 0.000000 0.000000 -1.000000
vn 0.000000 0.000000 -1.000000
vn 0.000000 0.000000 -1.000000
vn 0.000000 0.000000 -1.000000
vn 0.000000 0.000000 -1.000000
vn 0.000000 0.000000 -1.000000
vn 0.000000 0.000000 -1.000000
vn 0.000000 0.000000 -1.000000
vn 0.000000 0.000000 -1.000000
vn 0.000000 0.000000 -1.000000
vn 0.000000 0.000000 -1.000000
vn 0.000000 0.000000 -1.000000
vn 0.000000 0.000000 -1.000000
vn 0.000000 0.000000 -1.000000
vn 0.000000 0.000000 -1.000000
vn 0.000000 0.000000 -1.000000
vn 0.000000 0.000000 -1.000000
vn 0.000000 0.000000 -1.000000
vn 0.000000 -1.000000 0.000000
vn 0.063687 -0.997970 0.000000
vn 0.063687 -0.997970 0.000000
vn 0.000000 -1.000000 0.000000
vn 0.997056 -0.076680 0.000000
vn 0.997056 -0.076680 0.000000
vn 1.000000 0.000000 0.000000
vn 1.000000 0.000000 0.000000
vn 1.000000 0.000000 0.000000
vn 1.000000 0.000000 0.000000
vn 1.000000 0.000000 0.000000
vn 1.000000 0.000000 0.000000
vn 1.000000 0.000000 0.000000
vn 1.000000 0.000000 0.000000
vn 1.000000 0.000000 0.000000
vn 1.000000 0.000000 0.000000
vn 1.000000 0.000000 0.000000
vn 1.000000 0.000000 0.000000
vn 0.997056 0.076680 0.000000
vn 0.997056 0.076680 0.000000
vn -0.991428 -0.130654 0.000000
vn -0.991428 -0.130654 0.000000
vn -0.991428 0.130654 0.000000
vn -0.991428 0.130654 0.000000
vn -1.000000 0.000000 0.000000
vn -1.000000 0.000000 0.000000
vn -1.000000 0.000000 0.000000
vn -1.000000 0.000000 0.000000
vn -1.000000 0.000000 0.000000
vn -1.000000 0.000000 0.000000
vn -0.991428 -0.130654 0.000000
vn -0.991428 -0.130654 0.000000
vn -0.991428 0.130654 0.000000
vn -0.991428 0.130654 0.000000
vn -1.000000 0.000000 0.000000
vn -1.000000 0.000000 0.000000
vn -1.000000 0.000000 0.000000
vn -1.000000 0.000000 0.000000
vn -1.000000 0.000000 0.000000
vn -1.000000 0.000000 0.000000
vn -0.991428 -0.130654 0.000000
vn -0.991428 -0.130654 0.000000
vn -0.991428 0.130654 0.000000
vn -0.991428 0.130654 0.000000
vn 0.000000 0.000000 0.000000
vn 0.000000 0.000000 0.000000
vn 0.000000 0.000000 0.000000
vn 0.000000 0.000000 0.000000
vn 0.000000 0.000000 0.000000
vn 0.000000 0.000000 0.000000
vn 0.000000 0.000000 0.000000
vn 0.000000 0.000000 0.000000
vn 0.000000 0.000000 0.000000
vn 0.000000 0.000000 0.000000
vn 0.000000 0.000000 0.000000
vn 0.000000 0.000000 0.000000
vn 0.000000 0.000000 0.000000
vn 0.000000 0.000000 0.000000
vn 0.000000 0.000000 0.000000
vn 0.000000 0.000000 0.000000
vn -0.019719 -0.999806 0.000000
vn -0.019719 -0.999806 0.000000
vn 0.000000 0.000000 1.000000
vn 0.000000 0.000000 1.000000
vn 0.000000 0.000000 1.000000
vn 0.000000 0.000000 1.000000
vn 0.000000 0.000000 1.000000
vn 0.000000 0.000000 1.000000
vn 0.000000 0.000000 1.000000
vn 0.000000 0.000000 1.000000
vn 0.000000 1.000000 0.000000
vn 0.000000 1.000000 0.000000
vn -0.019719 0.999806 0.000000
vn -0.019719 0.999806 0.000000
vn 0.000000 0.000000 -1.000000
vn 0.000000 0.000000 -1.000000
vn 0.000000 0.000000 -1.000000
vn 0.000000 0.000000 -1.000000
vn 0.000000 0.000000 -1.000000
vn 0.000000 0.000000 -1.000000
vn 0.000000 0.000000 -1.000000
vn 0.000000 0.000000 -1.000000
vn 0.000000 -1.000000 0.000000
vn 0.000000 -1.000000 0.000000
vn -0.019719 -0.999806 0.000000
vn -0.019719 -0.999806 0.000000
vn 0.000000 0.000000 1.000000
vn 0.000000 0.000000 1.000000
vn 0.000000 0.000000 1.000000
vn 0.000000 0.000000 1.000000
vn 0.000000 0.000000 1.000000
vn 0.000000 0.000000 1.000000
vn 0.000000 0.000000 1.000000
vn 0.000000 0.000000 1.000000
vn 0.000000 1.000000 0.000000
vn 0.000000 1.000000 0.000000
vn -0.019719 0.999806 0.000000
vn -0.019719 0.999806 0.000000
vn 0.000000 0.000000 -1.000000
vn 0.000000 0.000000 -1.000000
vn 0.000000 0.000000 -1.000000
vn 0.000000 0.000000 -1.000000
vn 0.000000 0.000000 -1.000000
vn 0.000000 0.000000 -1.000000
vn 0.000000 0.000000 -1.000000
vn 0.000000 0.000000 -1.000000
vn 0.000000 -1.000000 0.000000
vn 0.000000 -1.000000 0.000000
vn -0.019719 -0.999806 0.000000
vn -0.019719 -0.999806 0.000000
vn 0.000000 0.000000 1.000000
vn 0.000000 0.000000 1.000000
vn 0.000000 0.000000 1.000000
vn 0.000000 0.000000 1.000000
vn 0.000000 0.000000 1.000000
vn 0.000000 0.000000 1.000000
vn 0.000000 0.000000 1.000000
vn 0.000000 0.000000 1.000000
vn -0.019719 0.999806 0.000000
vn -0.019719 0.999806 0.000000
vn 0.000000 0.000000 -1.000000
vn 0.000000 0.000000 -1.000000
vn 0.000000 0.000000 -1.000000
vn 0.000000 0.000000 -1.000000
vn 0.000000 0.000000 -1.000000
vn 0.000000 0.000000 -1.000000
vn 0.000000 0.000000 -1.000000
vn 0.000000 0.000000 -1.000000
vn 0.562114 0.827060 0.000000
vn 0.562114 0.827060 0.000000
vn 0.827061 0.562111 0.000000
vn 0.827061 0.562111 0.000000
vn 0.827060 -0.562114 0.000000
vn 0.827060 -0.562114 0.000000
vn 0.562114 -0.827060 0.000000
vn 0.562114 -0.827060 0.000000
vn -0.827060 -0.562113 0.000000
vn -0.827060 -0.562113 0.000000
vn -0.562114 -0.827060 0.000000
vn -0.562114 -0.827060 0.000000
vn -0.827060 0.562114 0.000000
vn -0.827060 0.562114 0.000000
vn -0.562112 0.827061 0.000000
vn -0.562112 0.827061 0.000000
vn -0.827060 -0.562113 0.000000
vn -0.827060 -0.562113 0.000000
vn -0.562113 -0.827060 0.000000
vn -0.562113 -0.827060 0.000000
vn -0.827060 0.562114 0.000000
vn -0.827060 0.562114 0.000000
vn -0.562112 0.827061 0.000000
vn -0.562112 0.827061 0.000000
vn -0.827061 -0.562113 0.000000
vn -0.827061 -0.562113 0.000000
vn -0.562116 -0.827058 0.000000
vn -0.562116 -0.827058 0.000000
vn -0.827062 0.562111 0.000000
vn -0.827062 0.562111 0.000000
vn -0.562114 0.827060 0.000000
vn -0.562114 0.827060 0.000000
s 1
g pCube1
usemtl initialShadingGroup
f 1/58/1 46/30/2 45/31/3 42/90/4 41/48/5 3/50/6 2/35/7
s off
f 29/23/8 30/24/9 31/25/10 32/26/11
s 2
f 4/1/12 5/2/13 7/3/14 6/68/15
f 6/68/15 7/3/14 9/4/16 8/37/17
f 8/37/17 9/4/16 11/6/18 10/5/19
f 10/5/19 11/6/18 13/45/20 12/78/21
f 12/78/21 13/45/20 38/88/22 37/44/23 34/86/24 33/41/25 14/39/26
s 3
f 14/39/27 33/41/28 36/87/29 15/42/30
s 4
f 15/42/31 36/87/32 35/43/33 40/27/34 39/28/35 17/7/36 16/29/37
f 16/29/37 17/7/36 19/9/38 18/8/39
f 18/8/39 19/9/38 21/11/40 20/10/41
f 20/10/41 21/11/40 23/13/42 22/12/43
f 22/12/43 23/13/42 25/15/44 24/14/45
f 24/14/45 25/15/44 27/32/46 26/16/47
f 26/16/47 27/32/46 44/33/48 43/51/49 48/94/50 47/54/51 28/34/52
s 3
f 28/34/53 47/54/54 46/93/55 1/55/56
f 41/48/57 44/92/58 27/49/59 3/50/60
f 3/50/60 27/49/59 25/17/61 5/2/62
f 5/2/62 25/17/61 23/18/63 7/3/64
f 7/3/64 23/18/63 21/19/65 9/4/66
f 9/4/66 21/19/65 19/20/67 11/6/68
f 11/6/68 19/20/67 17/46/69 13/45/70
f 13/45/70 17/46/69 39/47/71 38/88/72
f 49/60/73 52/96/74 57/61/75 60/100/76
s 8
f 26/64/77 2/35/78 4/1/79 24/21/80
f 24/21/80 4/1/79 6/68/81 22/38/82
s 9
f 65/70/83 68/104/84 73/71/85 76/108/86
s 10
f 20/74/87 8/37/88 10/5/89 18/22/90
f 18/22/90 10/5/89 12/78/91 16/40/92
s 3
f 81/80/93 84/112/94 89/81/95 92/116/96
s off
f 2/35/97 3/50/98 30/24/99 29/23/100
f 3/50/101 5/2/102 31/25/103 30/24/104
f 5/2/105 4/1/106 32/26/107 31/25/108
f 4/1/109 2/35/110 29/23/111 32/26/112
s 3
f 28/36/53 1/58/56 55/59/113 54/97/114
s 1
f 1/58/1 2/35/7 62/101/115 61/63/116 58/99/117 57/61/118 52/96/119 51/56/120 56/98/121 55/59/122
s 3
f 2/35/123 26/64/124 63/65/125 62/101/126
s 4
f 26/64/47 28/36/52 54/97/127 53/57/128 50/95/129 49/60/130 60/100/131 59/62/132 64/102/133 63/65/134
s 9
f 22/38/135 6/68/136 71/69/137 70/105/138
s 2
f 6/68/15 8/37/17 78/109/139 77/73/140 74/107/141 73/71/142 68/104/143 67/66/144 72/106/145 71/69/146
s 9
f 8/37/147 20/74/148 79/75/149 78/109/150
s 4
f 20/74/41 22/38/43 70/105/151 69/67/152 66/103/153 65/70/154 76/108/155 75/72/156 80/110/157 79/75/158
s 3
f 16/40/159 12/78/160 87/79/161 86/113/162
s 2
f 12/78/21 14/39/26 94/117/163 93/83/164 90/115/165 89/81/166 84/112/167 83/76/168 88/114/169 87/79/170
s 3
f 14/39/27 15/84/30 95/85/171 94/117/172
s 4
f 15/84/31 16/40/37 86/113/173 85/77/174 82/111/175 81/80/176 92/116/177 91/82/178 96/118/179 95/85/180
s 3
f 35/43/181 34/86/182 37/44/183 40/27/184
f 43/51/185 42/52/186 45/53/187 48/94/188
f 51/56/189 50/95/190 53/57/191 56/98/192
f 59/62/193 58/99/194 61/63/195 64/102/196
s 9
f 67/66/197 66/103/198 69/67/199 72/106/200
f 75/72/201 74/107/202 77/73/203 80/110/204
s 3
f 83/76/205 82/111/206 85/77/207 88/114/208
f 91/82/209 90/115/210 93/83/211 96/118/212
f 33/41/28 34/86/182 35/43/181 36/87/29
f 37/44/183 38/88/72 39/47/71 40/89/184
f 41/48/57 42/90/186 43/91/185 44/92/58
f 45/53/187 46/93/55 47/54/54 48/94/188
f 49/60/73 50/95/190 51/56/189 52/96/74
f 53/57/191 54/97/114 55/59/113 56/98/192
f 57/61/75 58/99/194 59/62/193 60/100/76
f 61/63/195 62/101/126 63/65/125 64/102/196
s 9
f 65/70/83 66/103/198 67/66/197 68/104/84
f 69/67/199 70/105/138 71/69/137 72/106/200
f 73/71/85 74/107/202 75/72/201 76/108/86
f 77/73/203 78/109/150 79/75/149 80/110/204
s 3
f 81/80/93 82/111/206 83/76/205 84/112/94
f 85/77/207 86/113/162 87/79/161 88/114/208
f 89/81/95 90/115/210 91/82/209 92/116/96
f 93/83/211 94/117/172 95/85/171 96/118/212
