# This file uses centimeters as units for non-parametric coordinates.

mtllib number_six.mtl
g default
v 0.181233 0.223624 0.181233
v -0.181233 0.586091 0.181233
v 0.181233 0.586091 0.181233
v -0.181233 0.948557 0.181233
v 0.181233 0.948557 0.181233
v -0.181233 1.311024 0.181233
v 0.181233 1.311024 0.181233
v -0.181233 1.673490 0.181233
v 0.181233 1.673490 0.181233
v -0.181233 2.035956 0.181233
v 0.181233 2.035956 0.181233
v 0.181233 2.398423 0.181233
v 0.181233 2.398423 -0.181233
v -0.181233 2.035956 -0.181233
v 0.181233 2.035956 -0.181233
v -0.181233 1.673490 -0.181233
v 0.181233 1.673490 -0.181233
v -0.181233 1.311024 -0.181233
v 0.181233 1.311024 -0.181233
v -0.181233 0.948557 -0.181233
v 0.181233 0.948557 -0.181233
v -0.181233 0.586091 -0.181233
v 0.181233 0.586091 -0.181233
v 0.181233 0.223624 -0.181233
v 0.181233 1.490226 0.181233
v -0.181233 1.490226 0.181233
v -0.181233 1.490225 -0.181233
v 0.181233 1.490225 -0.181233
v 0.181233 1.132716 0.181233
v -0.181233 1.132716 0.181233
v -0.181233 1.132716 -0.181233
v 0.181233 1.132716 -0.181233
v 1.124893 0.586091 -0.181233
v 1.124893 0.586091 0.181233
v 1.124893 1.132716 0.181233
v 1.124893 1.311024 0.181233
v 1.124893 1.132716 -0.181233
v 1.124893 1.311024 -0.181233
v 0.763379 0.586091 0.181233
v 0.763379 0.586091 -0.181233
v 0.763379 0.223624 -0.181233
v 0.763379 0.223624 0.181233
v 0.764580 1.132716 0.181233
v 0.764580 1.132716 -0.181233
v 0.764580 1.311024 0.181233
v 0.764580 1.490226 0.181233
v 0.764580 1.490225 -0.181233
v 0.764580 1.311024 -0.181233
v -0.181233 2.277159 0.181233
v -0.158837 2.331227 0.181233
v -0.158837 2.331227 -0.181233
v -0.181233 2.277159 -0.181233
v -0.114037 2.376027 0.181233
v -0.059969 2.398423 0.181233
v -0.059969 2.398423 -0.181233
v -0.114037 2.376027 -0.181233
v -0.059969 0.223624 0.181233
v -0.114037 0.246020 0.181233
v -0.114037 0.246020 -0.181233
v -0.059969 0.223624 -0.181233
v -0.158837 0.290820 0.181233
v -0.181233 0.344888 0.181233
v -0.181233 0.344888 -0.181233
v -0.158837 0.290820 -0.181233
v 1.003629 0.223624 -0.181233
v 1.057697 0.246020 -0.181233
v 1.057697 0.246020 0.181233
v 1.003629 0.223624 0.181233
v 1.102497 0.290821 -0.181233
v 1.124893 0.344889 -0.181233
v 1.124893 0.344889 0.181233
v 1.102497 0.290821 0.181233
v 1.003629 2.035956 -0.181233
v 1.057697 2.058352 -0.181233
v 1.057697 2.058352 0.181233
v 1.003629 2.035956 0.181233
v 1.102497 2.103153 -0.181233
v 1.124893 2.157220 -0.181233
v 1.124893 2.157220 0.181233
v 1.102497 2.103153 0.181233
v 1.124893 2.277159 -0.181233
v 1.102497 2.331227 -0.181233
v 1.102497 2.331227 0.181233
v 1.124893 2.277159 0.181233
v 1.057697 2.376027 -0.181233
v 1.003629 2.398423 -0.181233
v 1.003629 2.398423 0.181233
v 1.057697 2.376027 0.181233
v 1.124893 1.368961 -0.181233
v 1.102497 1.423029 -0.181233
v 1.102497 1.423029 0.181233
v 1.124893 1.368961 0.181233
v 1.057697 1.467830 -0.181233
v 1.003629 1.490225 -0.181233
v 1.003629 1.490226 0.181233
v 1.057697 1.467830 0.181233
vt 0.625000 0.000000
vt 0.625000 0.041667
vt 0.375000 0.083333
vt 0.625000 0.083333
vt 0.375000 0.125000
vt 0.625000 0.125000
vt 0.375000 0.166667
vt 0.625000 0.166667
vt 0.375000 0.208333
vt 0.625000 0.541667
vt 0.375000 0.583333
vt 0.625000 0.583333
vt 0.375000 0.625000
vt 0.625000 0.625000
vt 0.375000 0.666667
vt 0.625000 0.666667
vt 0.375000 0.708333
vt 0.875000 0.000000
vt 0.875000 0.041667
vt 0.875000 0.083333
vt 0.875000 0.125000
vt 0.875000 0.166667
vt 0.125000 0.041667
vt 0.125000 0.083333
vt 0.125000 0.125000
vt 0.125000 0.166667
vt 0.125000 0.208333
vt 0.625000 0.145600
vt 0.375000 0.145600
vt 0.125000 0.145600
vt 0.375000 0.604400
vt 0.625000 0.604400
vt 0.875000 0.145600
vt 0.625000 0.104503
vt 0.375000 0.104503
vt 0.125000 0.104503
vt 0.375000 0.645497
vt 0.625000 0.645497
vt 0.875000 0.104503
vt 0.875000 0.041667
vt 0.625003 0.104534
vt 0.625000 0.041667
vt 0.875000 0.041667
vt 0.875000 0.000000
vt 0.625000 0.000000
vt 0.874995 0.041667
vt 0.625005 0.041667
vt 0.625004 0.041667
vt 0.874996 0.041667
vt 0.625004 0.104549
vt 0.625000 0.125000
vt 0.625000 0.145600
vt 0.875000 0.145600
vt 0.875000 0.125000
vt 0.625000 0.250000
vt 0.375000 0.513940
vt 0.375000 0.541667
vt 0.390447 0.007724
vt 0.421348 0.002575
vt 0.458638 0.000000
vt 0.375000 0.041667
vt 0.625000 0.708333
vt 0.625000 0.750000
vt 0.390447 0.742276
vt 0.375000 0.736060
vt 0.625000 0.208333
vt 0.874997 0.104537
vt 0.874996 0.104551
vt 0.625000 0.125000
vt 0.375000 0.236060
vt 0.390447 0.507724
vt 0.421346 0.247426
vt 0.458638 0.500000
vt 0.625000 0.500000
vt 0.458638 1.000000
vt 0.625000 1.000000
vt 0.421346 0.747426
vt 0.390447 1.000000
vt 0.125000 0.013940
vt 0.875000 0.000000
vt 0.625000 0.002574
vt 0.875000 0.007724
vt 0.625000 0.013940
vt 0.625000 0.041667
vt 0.875000 0.208333
vt 0.875000 0.208333
vt 0.625000 0.210908
vt 0.875000 0.216058
vt 0.625000 0.222273
vt 0.875000 0.236060
vt 0.625000 0.242276
vt 0.875000 0.247426
vt 0.875000 0.250000
vt 0.625000 0.250000
vt 0.875000 0.125000
vt 0.875000 0.131660
vt 0.625000 0.137875
vt 0.875000 0.143025
vt 0.625000 0.145600
vt 0.390447 0.242276
vt 0.125000 0.239701
vt 0.125000 0.236060
vt 0.458638 0.250000
vt 0.421346 0.502574
vt 0.421346 1.000000
vt 0.458638 0.750000
vt 0.375000 0.013940
vt 0.125000 0.010299
vt 0.875000 0.002574
vt 0.625000 0.000000
vt 0.875000 0.013940
vt 0.625000 0.007724
vt 0.875000 0.210908
vt 0.625000 0.208333
vt 0.875000 0.222273
vt 0.625000 0.216058
vt 0.875000 0.242276
vt 0.625000 0.236060
vt 0.875000 0.250000
vt 0.625000 0.247426
vt 0.875000 0.137875
vt 0.625000 0.131660
vt 0.875000 0.145600
vt 0.625000 0.143025
vn 0.000000 0.000000 1.000000
vn 0.000000 0.000000 1.000000
vn 0.000000 0.000000 1.000000
vn 0.000000 0.000000 1.000000
vn 0.000000 0.000000 1.000000
vn 0.000000 0.000000 1.000000
vn 0.000000 0.000000 1.000000
vn 0.000000 0.000000 1.000000
vn 0.000000 0.000000 1.000000
vn 0.000000 0.000000 1.000000
vn 0.000000 0.000000 1.000000
vn 0.000000 0.000000 1.000000
vn 0.000000 0.000000 1.000000
vn 0.000000 0.000000 1.000000
vn 0.000000 0.000000 1.000000
vn 0.000000 0.000000 1.000000
vn 0.000000 0.000000 1.000000
vn 0.000000 0.000000 1.000000
vn 0.000000 0.000000 1.000000
vn -0.075631 0.997136 0.000000
vn -0.075631 0.997136 0.000000
vn 0.000000 1.000000 0.000000
vn 0.000000 1.000000 0.000000
vn 0.000000 0.000000 -1.000000
vn 0.000000 0.000000 -1.000000
vn 0.000000 0.000000 -1.000000
vn 0.000000 0.000000 -1.000000
vn 0.000000 0.000000 -1.000000
vn 0.000000 0.000000 -1.000000
vn 0.000000 0.000000 -1.000000
vn 0.000000 0.000000 -1.000000
vn 0.000000 0.000000 -1.000000
vn 0.000000 0.000000 -1.000000
vn 0.000000 0.000000 -1.000000
vn 0.000000 0.000000 -1.000000
vn 0.000000 0.000000 -1.000000
vn 0.000000 0.000000 -1.000000
vn 0.000000 0.000000 -1.000000
vn 0.000000 0.000000 -1.000000
vn 0.000000 0.000000 -1.000000
vn 0.000000 0.000000 -1.000000
vn 0.000000 0.000000 -1.000000
vn -0.075631 -0.997136 0.000000
vn -0.075631 -0.997136 0.000000
vn 0.000000 -1.000000 0.000000
vn 0.000000 -1.000000 0.000000
vn 0.997136 -0.075631 0.000000
vn 0.997136 -0.075631 0.000000
vn 1.000000 0.000000 0.000000
vn 1.000000 0.000000 0.000000
vn 1.000000 0.000000 0.000000
vn 1.000000 0.000000 0.000000
vn 1.000000 0.000000 0.000000
vn 1.000000 0.000000 0.000000
vn 1.000000 0.000000 0.000000
vn 1.000000 0.000000 0.000000
vn 1.000000 0.000000 0.000000
vn 1.000000 0.000000 0.000000
vn 1.000000 0.000000 0.000000
vn 1.000000 0.000000 0.000000
vn 0.991819 -0.127653 0.000000
vn 0.991819 -0.127653 0.000000
vn 0.991819 0.127653 0.000000
vn 0.991819 0.127653 0.000000
vn -0.997136 -0.075631 0.000000
vn -0.997136 -0.075631 0.000000
vn -1.000000 0.000000 0.000000
vn -1.000000 0.000000 0.000000
vn -1.000000 0.000000 0.000000
vn -1.000000 0.000000 0.000000
vn -1.000000 0.000000 0.000000
vn -1.000000 0.000000 0.000000
vn -1.000000 0.000000 0.000000
vn -1.000000 0.000000 0.000000
vn -1.000000 0.000000 0.000000
vn -1.000000 0.000000 0.000000
vn -1.000000 0.000000 0.000000
vn -1.000000 0.000000 0.000000
vn -1.000000 0.000000 0.000000
vn -1.000000 0.000000 0.000000
vn -0.997136 0.075631 0.000000
vn -0.997136 0.075631 0.000000
vn 1.000000 0.000000 0.000000
vn 1.000000 0.000000 0.000000
vn 1.000000 0.000000 0.000000
vn 1.000000 0.000000 0.000000
vn 1.000000 0.000000 0.000000
vn 1.000000 0.000000 0.000000
vn 0.997038 0.076915 -0.000000
vn 0.997038 0.076915 -0.000000
vn -0.000000 -1.000000 0.000000
vn -0.000000 -1.000000 0.000000
vn 0.000000 0.000000 -1.000000
vn 0.000000 0.000000 -1.000000
vn 0.000000 1.000000 -0.000000
vn 0.000000 1.000000 -0.000000
vn 0.000000 1.000000 -0.000000
vn 0.000000 1.000000 -0.000000
vn 0.000000 0.000000 1.000000
vn 0.000000 0.000000 1.000000
vn 0.000000 0.000000 1.000000
vn 0.000000 -1.000000 0.000000
vn 0.000000 -1.000000 0.000000
vn 0.025544 -0.999674 0.000000
vn 0.025544 -0.999674 0.000000
vn 0.000000 0.000000 -1.000000
vn 0.000000 0.000000 -1.000000
vn 0.000000 0.000000 -1.000000
vn 0.000000 0.000000 -1.000000
vn 0.000000 0.000000 -1.000000
vn 0.000000 0.000000 -1.000000
vn 0.000000 0.000000 -1.000000
vn 0.000000 0.000000 -1.000000
vn 0.000000 0.000000 -1.000000
vn 0.025544 0.999674 0.000000
vn 0.025544 0.999674 0.000000
vn 0.000000 0.000000 1.000000
vn 0.000000 0.000000 1.000000
vn 0.000000 0.000000 1.000000
vn 0.000000 0.000000 1.000000
vn 0.000000 0.000000 1.000000
vn 0.000000 0.000000 1.000000
vn 0.000000 0.000000 1.000000
vn 0.000000 0.000000 1.000000
vn 0.000000 0.000000 1.000000
vn 0.000000 0.000000 1.000000
vn 0.000000 -1.000000 0.000000
vn 0.000000 -1.000000 0.000000
vn 0.000000 -1.000000 0.000000
vn 0.000000 -1.000000 0.000000
vn 0.000000 0.000000 -1.000000
vn 0.000000 0.000000 -1.000000
vn 0.000000 0.000000 -1.000000
vn 0.000000 1.000000 -0.000000
vn 0.000000 1.000000 -0.000000
vn 0.000000 1.000000 -0.000000
vn 0.000000 1.000000 -0.000000
vn 0.000000 0.000000 1.000000
vn 0.000000 1.000000 0.000000
vn 0.000000 1.000000 0.000000
vn 0.000000 1.000000 0.000000
vn 0.000000 1.000000 0.000000
vn 0.000000 0.000000 -1.000000
vn 0.000000 0.000000 -1.000000
vn 0.000000 0.000000 -1.000000
vn 0.000000 0.000000 -1.000000
vn 0.000000 0.000000 -1.000000
vn 0.075874 -0.997117 0.000000
vn 0.075874 -0.997117 0.000000
vn 0.000000 0.000000 1.000000
vn 0.000000 0.000000 1.000000
vn 0.000000 0.000000 1.000000
vn 0.000000 0.000000 1.000000
vn 0.000000 0.000000 1.000000
vn -0.999998 0.002198 -0.000000
vn -0.999998 0.002198 -0.000000
vn -0.999998 0.002198 -0.000000
vn -0.999998 0.002198 -0.000000
vn 0.000000 0.000000 1.000000
vn 0.000000 0.000000 1.000000
vn 1.000000 0.000000 0.000000
vn 1.000000 0.000000 0.000000
vn 0.000000 0.000000 -1.000000
vn 0.000000 0.000000 -1.000000
vn 0.000000 0.000000 1.000000
vn 0.000000 0.000000 1.000000
vn 0.000000 0.000000 1.000000
vn 0.000000 0.000000 1.000000
vn 0.000000 0.000000 1.000000
vn 0.000000 0.000000 1.000000
vn 0.076183 0.997094 -0.000000
vn 0.076183 0.997094 -0.000000
vn 0.000000 0.000000 -1.000000
vn 0.000000 0.000000 -1.000000
vn 0.000000 0.000000 -1.000000
vn 0.000000 0.000000 -1.000000
vn 0.000000 0.000000 -1.000000
vn 0.000000 0.000000 -1.000000
vn 0.000000 -1.000000 0.000000
vn 0.000000 -1.000000 0.000000
vn 0.000000 -1.000000 0.000000
vn 0.000000 -1.000000 0.000000
vn -0.827060 0.562114 0.000000
vn -0.827060 0.562114 0.000000
vn -0.562111 0.827062 0.000000
vn -0.562111 0.827062 0.000000
vn -0.562113 -0.827061 0.000000
vn -0.562113 -0.827061 0.000000
vn -0.827060 -0.562113 0.000000
vn -0.827060 -0.562113 0.000000
vn 0.562113 -0.827060 0.000000
vn 0.562113 -0.827060 0.000000
vn 0.827061 -0.562113 0.000000
vn 0.827061 -0.562113 0.000000
vn 0.562116 -0.827059 0.000000
vn 0.562116 -0.827059 0.000000
vn 0.827060 -0.562113 0.000000
vn 0.827060 -0.562113 0.000000
vn 0.827059 0.562115 0.000000
vn 0.827059 0.562115 0.000000
vn 0.562111 0.827062 0.000000
vn 0.562111 0.827062 0.000000
vn 0.827060 0.562114 -0.000000
vn 0.827060 0.562114 -0.000000
vn 0.562113 0.827060 -0.000000
vn 0.562113 0.827060 -0.000000
vn 0.000000 0.000000 -1.000000
vn 0.000000 0.000000 -1.000000
vn 0.000000 0.000000 -1.000000
vn 0.000000 0.000000 -1.000000
vn 0.000000 0.000000 1.000000
vn 0.000000 0.000000 1.000000
vn 0.000000 0.000000 1.000000
vn 0.000000 0.000000 1.000000
s 1
g pCube1
usemtl initialShadingGroup
f 2/61/1 3/2/2 5/4/3 4/3/4
f 4/3/4 5/4/3 29/34/5 30/35/6
f 6/5/7 7/6/8 25/28/9 26/29/10
f 8/7/11 9/8/12 11/66/13 10/9/14
f 10/9/14 11/66/13 12/55/15 54/103/16 53/72/17 50/100/18 49/70/19
s 2
f 55/73/20 54/103/21 12/55/22 13/74/23
s 3
f 14/57/24 15/10/25 17/12/26 16/11/27
f 27/31/28 28/32/29 19/14/30 18/13/31
f 31/37/32 32/38/33 21/16/34 20/15/35
f 20/15/35 21/16/34 23/62/36 22/17/37
f 22/17/37 23/62/36 24/63/38 60/106/39 59/77/40 64/64/41 63/65/42
s 2
f 57/75/43 60/106/44 24/63/45 1/76/46
f 71/83/47 70/111/48 33/40/49 34/84/50
s 6
f 3/2/51 23/19/52 21/20/53 5/4/54
f 5/4/54 21/20/53 32/39/55 29/34/56
s 7
f 9/8/57 17/22/58 15/85/59 11/66/60
s 2
f 79/89/61 78/115/62 81/90/63 84/118/64
f 63/79/65 62/107/66 2/61/67 22/23/68
f 22/23/68 2/61/67 4/3/69 20/24/70
f 20/24/70 4/3/69 30/35/71 31/36/72
f 18/25/73 6/5/74 26/29/75 27/30/76
f 16/26/77 8/7/78 10/9/79 14/27/80
f 14/27/80 10/9/79 49/70/81 52/102/82
s 1
f 26/29/10 25/28/9 9/8/12 8/7/11
s 2
f 27/30/76 26/29/75 8/7/78 16/26/77
s 3
f 16/11/27 17/12/26 28/32/29 27/31/28
s 7
f 25/28/83 28/33/84 17/22/58 9/8/57
s 1
f 30/35/6 29/34/5 7/6/8 6/5/7
s 2
f 31/36/72 30/35/71 6/5/74 18/25/73
s 3
f 18/13/31 19/14/30 32/38/33 31/37/32
s 10
f 36/69/85 35/41/86 37/67/87 38/95/88 89/96/89 92/122/90
s 2
f 1/1/46 24/18/45 41/44/91 42/45/92
s 3
f 24/18/38 23/19/36 40/43/93 41/44/94
s off
f 23/19/95 3/2/96 39/42/97 40/43/98
s 1
f 3/2/2 1/1/99 42/45/100 39/42/101
s 2
f 11/66/102 15/85/103 73/86/104 76/114/105
s 3
f 15/85/25 13/93/106 86/119/107 85/92/108 82/117/109 81/90/110 78/115/111 77/88/112 74/113/113 73/86/114
s 2
f 13/93/23 12/55/22 87/94/115 86/119/116
s 1
f 12/55/15 11/66/13 76/114/117 75/87/118 80/116/119 79/89/120 84/118/121 83/91/122 88/120/123 87/94/124
f 7/6/8 29/34/5 43/50/125 45/51/126
s off
f 29/34/127 32/39/128 44/68/129 43/50/130
s 3
f 32/39/33 19/21/30 48/54/131 44/68/132
f 19/21/30 28/33/29 47/53/133 48/54/131
s 10
f 28/33/134 25/28/135 46/52/136 47/53/137
s 1
f 25/28/9 7/6/8 45/51/126 46/52/138
s off
f 44/46/139 43/47/140 35/48/141 37/49/142
s 3
f 41/44/94 40/43/93 33/40/143 70/111/144 69/82/145 66/109/146 65/80/147
s 2
f 42/45/92 41/44/91 65/80/148 68/110/149
s 1
f 39/42/101 42/45/100 68/110/150 67/81/151 72/112/152 71/83/153 34/84/154
s off
f 40/43/155 39/42/156 43/47/157 44/46/158
s 1
f 39/42/101 34/84/154 35/48/159 43/47/160
s 2
f 34/84/50 33/40/49 37/49/161 35/48/162
s 3
f 33/40/143 40/43/93 44/46/163 37/49/164
s 1
f 36/69/165 92/122/166 91/97/167 96/124/168 95/99/169 46/52/138 45/51/126 43/50/125 35/41/170
s 10
f 47/53/137 46/52/136 95/99/171 94/123/172
s 3
f 38/95/173 37/67/174 44/68/132 48/54/131 47/53/133 94/123/175 93/98/176 90/121/177 89/96/178
s off
f 43/50/179 44/68/180 37/67/181 35/41/182
s 2
f 51/71/183 50/100/184 53/72/185 56/104/186
f 59/77/187 58/105/188 61/78/189 64/64/190
f 67/81/191 66/109/192 69/82/193 72/112/194
f 75/87/195 74/113/196 77/88/197 80/116/198
f 83/91/199 82/117/200 85/92/201 88/120/202
s 10
f 91/97/203 90/121/204 93/98/205 96/124/206
s 3
f 52/56/207 51/71/208 56/104/209 55/73/210 13/74/106 15/10/25 14/57/24
s 1
f 62/107/211 61/58/212 58/59/213 57/60/214 1/1/99 3/2/2 2/61/1
s 2
f 49/70/81 50/100/184 51/101/183 52/102/82
f 53/72/185 54/103/21 55/73/20 56/104/186
f 57/75/43 58/105/188 59/77/187 60/106/44
f 61/58/189 62/107/66 63/79/65 64/108/190
f 65/80/148 66/109/192 67/81/191 68/110/149
f 69/82/193 70/111/48 71/83/47 72/112/194
f 73/86/104 74/113/196 75/87/195 76/114/105
f 77/88/197 78/115/62 79/89/61 80/116/198
f 81/90/63 82/117/200 83/91/199 84/118/64
f 85/92/201 86/119/116 87/94/115 88/120/202
s 10
f 89/96/89 90/121/204 91/97/203 92/122/90
f 93/98/205 94/123/172 95/99/171 96/124/206
