# This file uses centimeters as units for non-parametric coordinates.

mtllib number_two.mtl
g default
v 0.500000 0.043737 0.500000
v -0.500000 1.043737 0.500000
v 0.500000 1.043737 0.500000
v -0.500000 1.043737 -0.500000
v 0.500000 1.043737 -0.500000
v 0.500000 0.043737 -0.500000
v 0.500000 2.731005 0.500000
v 0.500000 2.731005 -0.500000
v 0.500000 1.901598 0.500000
v -0.500000 1.901598 0.500000
v -0.500000 1.901598 -0.500000
v 0.500000 1.901598 -0.500000
v 2.256263 2.731005 -0.500000
v 2.256263 2.731005 0.500000
v 1.289362 2.731005 0.500000
v 1.289362 2.731005 -0.500000
v 1.289362 1.901598 -0.500000
v 1.289362 1.901598 0.500000
v 1.289362 4.542031 0.500000
v 1.289362 4.542031 -0.500000
v 1.289362 3.602922 0.500000
v 1.289362 3.602922 -0.500000
v 2.256263 3.602922 -0.500000
v 2.256263 3.602922 0.500000
v 1.938640 0.043737 -0.500000
v 2.080312 0.102419 -0.500000
v 2.080312 0.102419 0.500000
v 1.938640 0.043737 0.500000
v 2.197701 0.219808 -0.500000
v 2.256383 0.361480 -0.500000
v 2.256383 0.361480 0.500000
v 2.197701 0.219808 0.500000
v 2.256383 0.725993 -0.500000
v 2.197701 0.867666 -0.500000
v 2.197701 0.867666 0.500000
v 2.256383 0.725993 0.500000
v 2.080312 0.985054 -0.500000
v 1.938640 1.043737 -0.500000
v 1.938640 1.043737 0.500000
v 2.080312 0.985054 0.500000
v -0.500000 2.413261 0.500000
v -0.441317 2.554933 0.500000
v -0.441317 2.554933 -0.500000
v -0.500000 2.413261 -0.500000
v -0.323929 2.672322 0.500000
v -0.182257 2.731005 0.500000
v -0.182257 2.731005 -0.500000
v -0.323929 2.672322 -0.500000
v 1.938520 1.901598 -0.500000
v 2.080192 1.960281 -0.500000
v 2.080192 1.960281 0.500000
v 1.938520 1.901598 0.500000
v 2.197581 2.077670 -0.500000
v 2.256263 2.219342 -0.500000
v 2.256263 2.219342 0.500000
v 2.197581 2.077670 0.500000
v 1.938520 4.542031 0.500000
v 2.080192 4.483349 0.500000
v 2.080192 4.483349 -0.500000
v 1.938520 4.542031 -0.500000
v 2.197581 4.365960 0.500000
v 2.256263 4.224288 0.500000
v 2.256263 4.224288 -0.500000
v 2.197581 4.365960 -0.500000
v -0.173199 3.602922 0.500000
v -0.314871 3.661605 0.500000
v -0.314871 3.661605 -0.500000
v -0.173199 3.602922 -0.500000
v -0.432260 3.778994 0.500000
v -0.490942 3.920666 0.500000
v -0.490942 3.920666 -0.500000
v -0.432260 3.778994 -0.500000
v -0.490942 4.224288 0.500000
v -0.432260 4.365960 0.500000
v -0.432260 4.365960 -0.500000
v -0.490942 4.224288 -0.500000
v -0.314871 4.483349 0.500000
v -0.173199 4.542031 0.500000
v -0.173199 4.542031 -0.500000
v -0.314871 4.483349 -0.500000
v -0.229323 0.043737 0.500000
v -0.350010 0.093727 0.500000
v -0.350010 0.093727 -0.500000
v -0.229323 0.043737 -0.500000
v -0.450010 0.193727 0.500000
v -0.500000 0.314413 0.500000
v -0.500000 0.314413 -0.500000
v -0.450010 0.193727 -0.500000
vt 0.625000 0.250000
vt 0.375000 0.500000
vt 0.625000 0.500000
vt 0.625000 0.250000
vt 0.375000 0.250000
vt 0.375000 0.500000
vt 0.625000 0.500000
vt 0.625000 0.250000
vt 0.625000 0.500000
vt 0.625000 0.500000
vt 0.625000 0.250000
vt 0.625000 0.500000
vt 0.625000 0.250000
vt 0.625000 0.000000
vt 0.625000 0.250000
vt 0.625000 0.500000
vt 0.625000 0.250000
vt 0.625000 0.500000
vt 0.875000 0.000000
vt 0.875000 0.000000
vt 0.625000 0.014671
vt 0.875000 0.044018
vt 0.625000 0.079436
vt 0.875000 0.170564
vt 0.625000 0.205982
vt 0.875000 0.235329
vt 0.875000 0.250000
vt 0.625000 0.250000
vt 0.375000 0.250000
vt 0.389671 0.500000
vt 0.419018 0.250000
vt 0.454436 0.500000
vt 0.625000 0.500000
vt 0.625000 0.500000
vt 0.625000 0.250000
vt 0.625000 0.500000
vt 0.625000 0.250000
vt 0.625000 0.250000
vt 0.625000 0.250000
vt 0.625000 0.500000
vt 0.625000 0.250000
vt 0.625000 0.500000
vt 0.625000 0.250000
vt 0.625000 0.250000
vt 0.625000 0.500000
vt 0.625000 0.250000
vt 0.625000 0.500000
vt 0.625000 0.250000
vt 0.625000 0.500000
vt 0.625000 0.250000
vt 0.625000 0.500000
vt 0.625000 0.500000
vt 0.875000 0.014671
vt 0.625000 0.000000
vt 0.875000 0.079436
vt 0.625000 0.044018
vt 0.875000 0.205982
vt 0.625000 0.170564
vt 0.875000 0.250000
vt 0.625000 0.235329
vt 0.389671 0.250000
vt 0.375000 0.500000
vt 0.454436 0.250000
vt 0.419018 0.500000
vt 0.625000 0.500000
vt 0.625000 0.250000
vt 0.625000 0.500000
vt 0.625000 0.250000
vt 0.625000 0.250000
vt 0.625000 0.500000
vt 0.625000 0.250000
vt 0.625000 0.500000
vt 0.625000 0.250000
vt 0.625000 0.500000
vt 0.625000 0.250000
vt 0.625000 0.500000
vt 0.625000 0.250000
vt 0.625000 0.500000
vt 0.625000 0.250000
vt 0.625000 0.500000
vt 0.387498 0.037498
vt 0.412497 0.012498
vt 0.442669 0.000000
vt 0.375000 0.250000
vt 0.625000 0.750000
vt 0.387498 0.712502
vt 0.375000 0.682331
vt 0.442669 1.000000
vt 0.625000 1.000000
vt 0.412497 0.737503
vt 0.387497 1.000000
vt 0.125000 0.067669
vt 0.125000 0.250000
vt 0.412497 1.000000
vt 0.442669 0.750000
vt 0.375000 0.067669
vt 0.125000 0.049995
vn -0.071043 0.997473 0.000000
vn -0.071043 0.997473 0.000000
vn 0.000000 1.000000 0.000000
vn 0.000000 1.000000 0.000000
vn 0.000000 0.000000 -1.000000
vn 0.000000 0.000000 -1.000000
vn 0.000000 0.000000 -1.000000
vn 0.000000 0.000000 -1.000000
vn 0.000000 0.000000 -1.000000
vn 0.000000 0.000000 -1.000000
vn 0.000000 0.000000 -1.000000
vn -0.058710 -0.998275 0.000000
vn -0.058710 -0.998275 0.000000
vn 0.000000 -1.000000 0.000000
vn 0.000000 -1.000000 0.000000
vn 0.993347 -0.115160 0.000000
vn 0.993347 -0.115160 0.000000
vn 0.993347 0.115160 0.000000
vn 0.993347 0.115160 0.000000
vn -0.998275 -0.058710 0.000000
vn -0.998275 -0.058710 0.000000
vn -1.000000 0.000000 0.000000
vn -1.000000 0.000000 0.000000
vn 0.037108 -0.999311 0.000000
vn 0.037108 -0.999311 0.000000
vn 0.000000 0.000000 -1.000000
vn 0.000000 0.000000 -1.000000
vn 0.000000 0.000000 -1.000000
vn 0.000000 0.000000 -1.000000
vn 0.000000 0.000000 -1.000000
vn 0.000000 0.000000 -1.000000
vn 0.000000 0.000000 -1.000000
vn 0.000000 0.000000 -1.000000
vn 0.000000 1.000000 0.000000
vn 0.000000 1.000000 0.000000
vn 0.037108 0.999311 0.000000
vn 0.037108 0.999311 0.000000
vn -0.000000 0.000000 1.000000
vn -0.000000 0.000000 1.000000
vn -0.000000 0.000000 1.000000
vn -0.000000 0.000000 1.000000
vn -0.000000 0.000000 1.000000
vn -0.000000 0.000000 1.000000
vn -0.000000 0.000000 1.000000
vn -0.000000 0.000000 1.000000
vn -0.000000 0.000000 1.000000
vn -0.000000 0.000000 1.000000
vn 0.000000 0.000000 1.000000
vn 0.000000 0.000000 1.000000
vn 0.000000 0.000000 1.000000
vn 1.000000 0.000000 0.000000
vn 1.000000 0.000000 0.000000
vn 1.000000 0.000000 0.000000
vn 1.000000 0.000000 0.000000
vn 0.000000 0.000000 -1.000000
vn 0.000000 0.000000 -1.000000
vn -1.000000 0.000000 0.000000
vn -1.000000 0.000000 0.000000
vn 0.000000 0.000000 1.000000
vn 0.000000 0.000000 1.000000
vn 0.000000 0.000000 1.000000
vn 0.000000 0.000000 1.000000
vn 0.000000 0.000000 1.000000
vn -0.995991 0.089460 0.000000
vn -0.995991 0.089460 0.000000
vn 0.000000 0.000000 -1.000000
vn 0.000000 0.000000 -1.000000
vn 0.000000 0.000000 -1.000000
vn 0.000000 0.000000 -1.000000
vn 0.000000 0.000000 -1.000000
vn 0.995991 -0.089460 0.000000
vn 0.995991 -0.089460 0.000000
vn 1.000000 0.000000 0.000000
vn 1.000000 0.000000 0.000000
vn 0.000000 -1.000000 0.000000
vn 0.000000 -1.000000 0.000000
vn 0.000000 -1.000000 0.000000
vn 0.000000 -1.000000 0.000000
vn 0.000000 0.000000 -1.000000
vn 0.000000 0.000000 -1.000000
vn 0.000000 1.000000 0.000000
vn 0.000000 1.000000 0.000000
vn 0.000000 0.000000 1.000000
vn 0.000000 0.000000 1.000000
vn 0.000000 1.000000 0.000000
vn 0.000000 1.000000 0.000000
vn 0.074000 0.997258 0.000000
vn 0.074000 0.997258 0.000000
vn 0.000000 0.000000 -1.000000
vn 0.000000 0.000000 -1.000000
vn 0.000000 0.000000 -1.000000
vn 0.000000 0.000000 -1.000000
vn 0.000000 0.000000 -1.000000
vn 0.074000 -0.997258 0.000000
vn 0.074000 -0.997258 0.000000
vn 0.000000 0.000000 1.000000
vn 0.000000 0.000000 1.000000
vn 0.000000 0.000000 1.000000
vn 0.000000 0.000000 1.000000
vn 0.000000 0.000000 1.000000
vn -1.000000 0.000000 0.000000
vn -1.000000 0.000000 0.000000
vn -1.000000 0.000000 0.000000
vn -1.000000 0.000000 0.000000
vn 0.000000 0.000000 1.000000
vn 0.000000 0.000000 1.000000
vn 1.000000 0.000000 0.000000
vn 1.000000 0.000000 0.000000
vn 0.000000 0.000000 -1.000000
vn 0.000000 0.000000 -1.000000
vn -0.991428 -0.130654 0.000000
vn -0.991428 -0.130654 0.000000
vn -0.991428 0.130654 0.000000
vn -0.991428 0.130654 0.000000
vn 0.000000 0.000000 -1.000000
vn 0.000000 0.000000 -1.000000
vn 0.000000 0.000000 -1.000000
vn 0.000000 0.000000 -1.000000
vn 0.000000 0.000000 -1.000000
vn 0.997056 0.076680 0.000000
vn 0.997056 0.076680 0.000000
vn 0.000000 0.000000 1.000000
vn 0.000000 0.000000 1.000000
vn 0.000000 0.000000 1.000000
vn 0.000000 0.000000 1.000000
vn 0.000000 0.000000 1.000000
vn 0.000000 -1.000000 0.000000
vn 0.000000 -1.000000 0.000000
vn -0.036556 -0.999332 0.000000
vn -0.036556 -0.999332 0.000000
vn 0.000000 0.000000 1.000000
vn 0.000000 0.000000 1.000000
vn 0.000000 0.000000 1.000000
vn 0.000000 0.000000 1.000000
vn 0.000000 0.000000 1.000000
vn 0.000000 0.000000 1.000000
vn 0.000000 0.000000 1.000000
vn 0.000000 0.000000 1.000000
vn -0.036555 0.999332 0.000000
vn -0.036555 0.999332 0.000000
vn 0.000000 0.000000 -1.000000
vn 0.000000 0.000000 -1.000000
vn 0.000000 0.000000 -1.000000
vn 0.000000 0.000000 -1.000000
vn 0.000000 0.000000 -1.000000
vn 0.000000 0.000000 -1.000000
vn 0.000000 0.000000 -1.000000
vn 0.000000 0.000000 -1.000000
vn 0.562113 -0.827060 0.000000
vn 0.562113 -0.827060 0.000000
vn 0.827060 -0.562114 0.000000
vn 0.827060 -0.562114 0.000000
vn 0.827060 0.562114 0.000000
vn 0.827060 0.562114 0.000000
vn 0.562113 0.827060 0.000000
vn 0.562113 0.827060 0.000000
vn -0.827061 0.562113 0.000000
vn -0.827061 0.562113 0.000000
vn -0.562113 0.827061 0.000000
vn -0.562113 0.827061 0.000000
vn 0.562113 -0.827060 0.000000
vn 0.562113 -0.827060 0.000000
vn 0.827060 -0.562113 0.000000
vn 0.827060 -0.562113 0.000000
vn 0.562113 0.827060 0.000000
vn 0.562113 0.827060 0.000000
vn 0.827060 0.562113 0.000000
vn 0.827060 0.562113 0.000000
vn -0.562114 -0.827060 0.000000
vn -0.562114 -0.827060 0.000000
vn -0.827060 -0.562113 0.000000
vn -0.827060 -0.562113 0.000000
vn -0.827060 0.562113 0.000000
vn -0.827060 0.562113 0.000000
vn -0.562113 0.827060 0.000000
vn -0.562113 0.827060 0.000000
vn -0.562113 -0.827060 0.000000
vn -0.562113 -0.827060 0.000000
vn -0.827061 -0.562113 0.000000
vn -0.827061 -0.562113 0.000000
vn 0.000000 0.000000 1.000000
vn 0.000000 0.000000 1.000000
vn 0.000000 0.000000 1.000000
vn 0.000000 0.000000 1.000000
s 1
g pCube1
usemtl initialShadingGroup
f 47/32/1 46/63/2 7/15/3 8/33/4
s 2
f 4/2/5 5/3/6 6/85/7 84/95/8 83/90/9 88/86/10 87/87/11
s 1
f 81/88/12 84/95/13 6/85/14 1/89/15
f 31/23/16 30/55/17 33/24/18 36/58/19
f 87/92/20 86/96/21 2/84/22 4/93/23
f 1/14/15 6/19/14 25/20/24 28/54/25
s 2
f 6/19/7 5/27/6 38/59/26 37/26/27 34/57/28 33/24/29 30/55/30 29/22/31 26/53/32 25/20/33
s 1
f 5/27/34 3/1/35 39/28/36 38/59/37
s 7
f 3/1/38 1/14/39 28/54/40 27/21/41 32/56/42 31/23/43 36/58/44 35/25/45 40/60/46 39/28/47
f 2/84/48 3/1/38 9/4/49 10/5/50
s off
f 3/1/51 5/3/52 12/7/53 9/4/54
s 2
f 5/3/6 4/2/5 11/6/55 12/7/56
s 1
f 4/2/23 2/84/22 10/5/57 11/6/58
s 7
f 10/5/50 9/4/49 7/15/59 46/63/60 45/31/61 42/61/62 41/29/63
s 1
f 11/6/58 10/5/57 41/29/64 44/62/65
s 2
f 12/7/56 11/6/55 44/62/66 43/30/67 48/64/68 47/32/69 8/33/70
s 8
f 55/37/71 54/67/72 13/16/73 14/38/74
f 9/4/75 12/7/76 17/10/77 18/11/78
s 2
f 12/7/56 8/33/70 16/9/79 17/10/80
s 1
f 8/33/4 7/15/3 15/8/81 16/9/82
s 7
f 7/15/59 9/4/49 18/11/83 15/8/84
s 8
f 20/51/85 19/17/86 57/39/87 60/70/88
s 2
f 17/10/80 16/9/79 13/16/89 54/67/90 53/36/91 50/65/92 49/34/93
s 8
f 18/11/78 17/10/77 49/34/94 52/66/95
s 7
f 15/8/84 18/11/83 52/66/96 51/35/97 56/68/98 55/37/99 14/38/100
s off
f 16/9/101 15/8/102 21/43/103 22/18/104
s 7
f 15/8/84 14/38/100 24/13/105 21/43/106
s 8
f 14/38/74 13/16/73 23/12/107 24/13/108
s 2
f 13/16/89 16/9/79 22/18/109 23/12/110
s 8
f 71/47/111 70/75/112 73/48/113 76/78/114
s 2
f 23/12/110 22/18/109 20/51/115 60/70/116 59/40/117 64/72/118 63/42/119
s 8
f 24/13/108 23/12/107 63/42/120 62/71/121
s 7
f 21/43/106 24/13/105 62/71/122 61/41/123 58/69/124 57/39/125 19/17/126
s 8
f 22/18/127 21/43/128 65/44/129 68/74/130
s 7
f 21/43/106 19/17/126 78/79/131 77/50/132 74/77/133 73/48/134 70/75/135 69/46/136 66/73/137 65/44/138
s 8
f 19/17/86 20/51/85 79/52/139 78/79/140
s 2
f 20/51/115 22/18/109 68/74/141 67/45/142 72/76/143 71/47/144 76/78/145 75/49/146 80/80/147 79/52/148
s 1
f 27/21/149 26/53/150 29/22/151 32/56/152
f 35/25/153 34/57/154 37/26/155 40/60/156
f 43/30/157 42/61/158 45/31/159 48/64/160
s 8
f 51/35/161 50/65/162 53/36/163 56/68/164
f 59/40/165 58/69/166 61/41/167 64/72/168
f 67/45/169 66/73/170 69/46/171 72/76/172
f 75/49/173 74/77/174 77/50/175 80/80/176
s 1
f 25/20/24 26/53/150 27/21/149 28/54/25
f 29/22/151 30/55/17 31/23/16 32/56/152
f 33/24/18 34/57/154 35/25/153 36/58/19
f 37/26/155 38/59/37 39/28/36 40/60/156
f 41/29/64 42/61/158 43/30/157 44/62/65
f 45/31/159 46/63/2 47/32/1 48/64/160
s 8
f 49/34/94 50/65/162 51/35/161 52/66/95
f 53/36/163 54/67/72 55/37/71 56/68/164
f 57/39/87 58/69/166 59/40/165 60/70/88
f 61/41/167 62/71/121 63/42/120 64/72/168
f 65/44/129 66/73/170 67/45/169 68/74/130
f 69/46/171 70/75/112 71/47/111 72/76/172
f 73/48/113 74/77/174 75/49/173 76/78/114
f 77/50/175 78/79/140 79/52/139 80/80/176
s 1
f 83/90/177 82/94/178 85/91/179 88/86/180
s 7
f 86/96/181 85/81/182 82/82/183 81/83/184 1/14/39 3/1/38 2/84/48
s 1
f 81/88/12 82/94/178 83/90/177 84/95/13
f 85/81/179 86/96/21 87/92/20 88/97/180
