# This file uses centimeters as units for non-parametric coordinates.

mtllib number_seven.mtl
g default
v -0.500000 1.003713 0.500000
v 0.500000 1.003713 0.500000
v -0.500000 2.003713 0.500000
v 0.500000 2.003713 0.500000
v -0.500000 3.003713 0.500000
v 0.500000 3.003713 0.500000
v -0.500000 4.003714 0.500000
v 0.500000 4.003714 0.500000
v -0.500000 5.003713 0.500000
v 0.500000 5.003713 0.500000
v -0.500000 6.003713 0.500000
v -0.500000 6.003713 -0.500000
v -0.500000 5.003713 -0.500000
v 0.500000 5.003713 -0.500000
v -0.500000 4.003713 -0.500000
v 0.500000 4.003713 -0.500000
v -0.500000 3.003713 -0.500000
v 0.500000 3.003713 -0.500000
v -0.500000 2.003713 -0.500000
v 0.500000 2.003713 -0.500000
v -0.500000 1.003713 -0.500000
v 0.500000 1.003713 -0.500000
v 0.161655 6.003713 0.500000
v 0.312513 5.941226 0.500000
v 0.312513 5.941226 -0.500000
v 0.161655 6.003713 -0.500000
v 0.437513 5.816226 0.500000
v 0.500000 5.665368 0.500000
v 0.500000 5.665368 -0.500000
v 0.437513 5.816226 -0.500000
v -0.161655 0.003713 0.500000
v -0.312512 0.066200 0.500000
v -0.312512 0.066200 -0.500000
v -0.161655 0.003713 -0.500000
v -0.437513 0.191201 0.500000
v -0.500000 0.342058 0.500000
v -0.500000 0.342058 -0.500000
v -0.437513 0.191201 -0.500000
v 0.500000 0.342058 0.500000
v 0.437513 0.191201 0.500000
v 0.437513 0.191201 -0.500000
v 0.500000 0.342058 -0.500000
v 0.312512 0.066200 0.500000
v 0.161655 0.003713 0.500000
v 0.161655 0.003713 -0.500000
v 0.312512 0.066200 -0.500000
v -2.790685 5.342058 -0.500000
v -2.728197 5.191200 -0.500000
v -2.728197 5.191201 0.500000
v -2.790685 5.342058 0.500000
v -2.603197 5.066200 -0.500000
v -2.452339 5.003713 -0.500000
v -2.452339 5.003713 0.500000
v -2.603197 5.066200 0.500000
v -2.790685 5.665368 0.500000
v -2.728197 5.816226 0.500000
v -2.728197 5.816226 -0.500000
v -2.790685 5.665368 -0.500000
v -2.603197 5.941226 0.500000
v -2.452339 6.003713 0.500000
v -2.452339 6.003713 -0.500000
v -2.603197 5.941226 -0.500000
vt 0.375000 0.083333
vt 0.625000 0.083333
vt 0.375000 0.125000
vt 0.625000 0.125000
vt 0.375000 0.166667
vt 0.625000 0.166667
vt 0.625000 0.541667
vt 0.375000 0.583333
vt 0.625000 0.583333
vt 0.375000 0.625000
vt 0.625000 0.625000
vt 0.375000 0.666667
vt 0.625000 0.666667
vt 0.375000 0.708333
vt 0.875000 0.083333
vt 0.875000 0.125000
vt 0.875000 0.166667
vt 0.125000 0.041667
vt 0.125000 0.083333
vt 0.125000 0.125000
vt 0.125000 0.166667
vt 0.609378 0.507812
vt 0.625000 0.514098
vt 0.375000 0.541667
vt 0.390622 0.007812
vt 0.421872 0.002604
vt 0.459586 0.000000
vt 0.540414 0.000000
vt 0.578128 0.002604
vt 0.375000 0.041667
vt 0.625000 0.708333
vt 0.625000 0.735902
vt 0.390622 0.742188
vt 0.375000 0.735902
vt 0.375000 0.250000
vt 0.125000 0.208333
vt 0.540414 0.250000
vt 0.375000 0.500000
vt 0.578128 0.502604
vt 0.609378 0.242188
vt 0.625000 0.208333
vt 0.875000 0.208333
vt 0.875000 0.235902
vt 0.421872 0.747396
vt 0.390622 1.000000
vt 0.125000 0.014098
vt 0.625000 0.014098
vt 0.875000 0.041667
vt 0.625000 0.041667
vt 0.609378 0.742188
vt 0.609378 1.000000
vt 0.578128 1.000000
vt 0.459586 1.000000
vt 0.540414 0.750000
vt 0.375000 0.216145
vt 0.125000 0.210937
vt 0.375000 0.208333
vt 0.375000 0.208333
vt 0.125000 0.222431
vt 0.375000 0.235902
vt 0.125000 0.242188
vt 0.375000 0.247396
vt 0.125000 0.250000
vt 0.125000 0.250000
vt 0.578128 0.247396
vt 0.540414 0.500000
vt 0.625000 0.235902
vt 0.875000 0.239584
vt 0.421872 1.000000
vt 0.459586 0.750000
vt 0.375000 0.014098
vt 0.125000 0.010416
vt 0.609378 0.007812
vt 0.875000 0.010416
vt 0.875000 0.014098
vt 0.540414 1.000000
vt 0.578128 0.747396
vt 0.125000 0.216145
vt 0.375000 0.222431
vt 0.125000 0.208333
vt 0.375000 0.210937
vt 0.375000 0.242188
vt 0.125000 0.235902
vt 0.375000 0.250000
vt 0.125000 0.247396
vn 0.000000 0.000000 1.000000
vn 0.000000 0.000000 1.000000
vn 0.000000 0.000000 1.000000
vn 0.000000 0.000000 1.000000
vn 0.000000 0.000000 1.000000
vn 0.000000 0.000000 1.000000
vn 0.000000 0.000000 1.000000
vn 0.000000 0.000000 1.000000
vn 0.000000 0.000000 1.000000
vn 0.000000 0.000000 1.000000
vn 0.000000 0.000000 1.000000
vn 0.000000 0.000000 1.000000
vn 0.000000 0.000000 1.000000
vn 0.000000 0.000000 1.000000
vn 0.000000 0.000000 1.000000
vn 0.000000 1.000000 0.000000
vn 0.076679 0.997056 0.000000
vn 0.076679 0.997056 0.000000
vn 0.000000 1.000000 0.000000
vn 0.000000 0.000000 -1.000000
vn 0.000000 0.000000 -1.000000
vn 0.000000 0.000000 -1.000000
vn 0.000000 0.000000 -1.000000
vn 0.000000 0.000000 -1.000000
vn 0.000000 0.000000 -1.000000
vn 0.000000 0.000000 -1.000000
vn 0.000000 0.000000 -1.000000
vn 0.000000 0.000000 -1.000000
vn 0.000000 0.000000 -1.000000
vn 0.000000 0.000000 -1.000000
vn 0.000000 0.000000 -1.000000
vn 0.000000 0.000000 -1.000000
vn 0.000000 0.000000 -1.000000
vn 0.000000 0.000000 -1.000000
vn 0.000000 0.000000 -1.000000
vn 0.000000 0.000000 -1.000000
vn 0.000000 0.000000 -1.000000
vn 0.000000 0.000000 -1.000000
vn 0.000000 0.000000 -1.000000
vn 0.000000 0.000000 -1.000000
vn 0.000000 0.000000 -1.000000
vn 0.000000 0.000000 -1.000000
vn -0.130654 -0.991428 0.000000
vn -0.130654 -0.991428 0.000000
vn 0.130654 -0.991428 0.000000
vn 0.130654 -0.991428 0.000000
vn 0.997056 -0.076680 0.000000
vn 0.997056 -0.076680 0.000000
vn 1.000000 0.000000 0.000000
vn 1.000000 0.000000 0.000000
vn 1.000000 0.000000 0.000000
vn 1.000000 0.000000 0.000000
vn 1.000000 0.000000 0.000000
vn 1.000000 0.000000 0.000000
vn 1.000000 0.000000 0.000000
vn 1.000000 0.000000 0.000000
vn 1.000000 0.000000 0.000000
vn 1.000000 0.000000 0.000000
vn 0.997056 0.076680 0.000000
vn 0.997056 0.076680 0.000000
vn -0.997056 -0.076680 0.000000
vn -0.997056 -0.076680 0.000000
vn -1.000000 0.000000 0.000000
vn -1.000000 0.000000 0.000000
vn -1.000000 0.000000 0.000000
vn -1.000000 0.000000 0.000000
vn -1.000000 0.000000 0.000000
vn -1.000000 0.000000 0.000000
vn -1.000000 0.000000 0.000000
vn -1.000000 0.000000 0.000000
vn -1.000000 0.000000 0.000000
vn -1.000000 0.000000 0.000000
vn -0.991428 -0.130654 0.000000
vn -0.991428 -0.130654 0.000000
vn -0.991428 0.130654 0.000000
vn -0.991428 0.130654 0.000000
vn 0.000000 -1.000000 0.000000
vn 0.000000 -1.000000 0.000000
vn -0.029698 -0.999559 0.000000
vn -0.029698 -0.999559 0.000000
vn 0.000000 0.000000 1.000000
vn 0.000000 0.000000 1.000000
vn 0.000000 0.000000 1.000000
vn 0.000000 0.000000 1.000000
vn 0.000000 0.000000 1.000000
vn 0.000000 0.000000 1.000000
vn 0.000000 0.000000 1.000000
vn 0.000000 0.000000 1.000000
vn -0.029697 0.999559 0.000000
vn -0.029697 0.999559 0.000000
vn 0.000000 0.000000 -1.000000
vn 0.000000 0.000000 -1.000000
vn 0.000000 0.000000 -1.000000
vn 0.000000 0.000000 -1.000000
vn 0.000000 0.000000 -1.000000
vn 0.000000 0.000000 -1.000000
vn 0.000000 0.000000 -1.000000
vn 0.000000 0.000000 -1.000000
vn 0.562112 0.827061 0.000000
vn 0.562112 0.827061 0.000000
vn 0.827060 0.562114 0.000000
vn 0.827060 0.562114 0.000000
vn -0.562114 -0.827060 0.000000
vn -0.562114 -0.827060 0.000000
vn -0.827060 -0.562113 0.000000
vn -0.827060 -0.562113 0.000000
vn 0.827060 -0.562113 0.000000
vn 0.827060 -0.562113 0.000000
vn 0.562114 -0.827060 0.000000
vn 0.562114 -0.827060 0.000000
vn -0.827060 -0.562113 0.000000
vn -0.827060 -0.562114 0.000000
vn -0.562114 -0.827060 0.000000
vn -0.562114 -0.827060 0.000000
vn -0.827060 0.562114 0.000000
vn -0.827060 0.562114 0.000000
vn -0.562112 0.827061 0.000000
vn -0.562112 0.827061 0.000000
vn 0.000000 0.000000 1.000000
vn 0.000000 0.000000 1.000000
vn 0.000000 0.000000 1.000000
vn 0.000000 0.000000 1.000000
vn 0.000000 0.000000 1.000000
vn 0.000000 0.000000 1.000000
vn 0.000000 0.000000 1.000000
vn 0.000000 0.000000 1.000000
s 1
g pCube1
usemtl initialShadingGroup
f 1/30/1 2/49/2 4/2/3 3/1/4
f 3/1/4 4/2/3 6/4/5 5/3/6
f 5/3/6 6/4/5 8/6/7 7/5/8
f 7/5/8 8/6/7 10/41/9 9/57/10
f 9/57/10 10/41/9 28/67/11 27/40/12 24/65/13 23/37/14 11/35/15
s 2
f 11/35/16 23/37/17 26/66/18 12/38/19
s 3
f 12/38/20 26/66/21 25/39/22 30/22/23 29/23/24 14/7/25 13/24/26
f 13/24/26 14/7/25 16/9/27 15/8/28
f 15/8/28 16/9/27 18/11/29 17/10/30
f 17/10/30 18/11/29 20/13/31 19/12/32
f 19/12/32 20/13/31 22/31/33 21/14/34
f 21/14/34 22/31/33 42/32/35 41/50/36 46/77/37 45/54/38 34/70/39 33/44/40 38/33/41 37/34/42
s 2
f 31/53/43 34/70/44 45/54/45 44/76/46
f 39/47/47 42/75/48 22/48/49 2/49/50
f 2/49/50 22/48/49 20/15/51 4/2/52
f 4/2/52 20/15/51 18/16/53 6/4/54
f 6/4/54 18/16/53 16/17/55 8/6/56
f 8/6/56 16/17/55 14/42/57 10/41/58
f 10/41/58 14/42/57 29/43/59 28/67/60
f 37/46/61 36/71/62 1/30/63 21/18/64
f 21/18/64 1/30/63 3/1/65 19/19/66
f 19/19/66 3/1/65 5/3/67 17/20/68
f 17/20/68 5/3/67 7/5/69 15/21/70
f 15/21/70 7/5/69 9/57/71 13/36/72
f 47/59/73 50/79/74 55/60/75 58/83/76
f 13/36/77 9/57/78 53/58/79 52/80/80
s 1
f 9/57/10 11/35/15 60/84/81 59/62/82 56/82/83 55/60/84 50/79/85 49/55/86 54/81/87 53/58/88
s 2
f 11/35/16 12/63/19 61/64/89 60/84/90
s 3
f 12/63/20 13/36/26 52/80/91 51/56/92 48/78/93 47/59/94 58/83/95 57/61/96 62/85/97 61/64/98
s 2
f 25/39/99 24/65/100 27/40/101 30/22/102
f 33/44/103 32/69/104 35/45/105 38/33/106
f 41/50/107 40/51/108 43/52/109 46/77/110
f 49/55/111 48/78/112 51/56/113 54/81/114
f 57/61/115 56/82/116 59/62/117 62/85/118
s 1
f 36/71/119 35/25/120 32/26/121 31/27/122 44/28/123 43/29/124 40/73/125 39/47/126 2/49/2 1/30/1
s 2
f 23/37/17 24/65/100 25/39/99 26/66/18
f 27/40/101 28/67/60 29/43/59 30/68/102
f 31/53/43 32/69/104 33/44/103 34/70/44
f 35/25/105 36/71/62 37/46/61 38/72/106
f 39/47/47 40/73/108 41/74/107 42/75/48
f 43/52/109 44/76/46 45/54/45 46/77/110
f 47/59/73 48/78/112 49/55/111 50/79/74
f 51/56/113 52/80/80 53/58/79 54/81/114
f 55/60/75 56/82/116 57/61/115 58/83/76
f 59/62/117 60/84/90 61/64/89 62/85/118
