# This file uses centimeters as units for non-parametric coordinates.

mtllib number_one.mtl
g default
v -0.079072 0.626108 0.077849
v 0.079072 0.626108 0.077849
v -0.079072 0.876108 0.077849
v 0.079072 0.876108 0.077849
v -0.079072 1.126108 0.077849
v 0.079072 1.126108 0.077849
v -0.079072 1.126108 -0.077849
v 0.079072 1.126108 -0.077849
v -0.079072 0.876108 -0.077849
v 0.079072 0.876108 -0.077849
v -0.079072 0.626108 -0.077849
v 0.079072 0.626108 -0.077849
v -0.079072 1.289588 0.077849
v -0.079072 1.289588 -0.077849
v -0.079072 0.760597 0.077849
v -0.079072 0.760597 -0.077849
v 0.079072 0.760597 -0.077849
v 0.079072 0.760597 0.077849
v 0.058380 1.289588 0.077849
v 0.079072 1.268896 0.077849
v 0.058380 1.289588 -0.077849
v 0.079072 1.268896 -0.077849
v -0.232719 1.147116 0.077849
v -0.232719 1.147116 -0.077849
v -0.231297 1.193213 0.077849
v -0.215762 1.218012 0.077849
v -0.231297 1.193213 -0.077849
v -0.215762 1.218012 -0.077849
v -0.205010 1.126108 0.077849
v -0.217457 1.131376 0.077849
v -0.217457 1.131376 -0.077849
v -0.205010 1.126108 -0.077849
v -0.242072 0.654115 -0.077849
v -0.236900 0.641627 -0.077849
v -0.236900 0.641627 0.077849
v -0.242072 0.654115 0.077849
v -0.226553 0.631280 -0.077849
v -0.214065 0.626108 -0.077849
v -0.214065 0.626108 0.077849
v -0.226553 0.631280 0.077849
v -0.242072 0.732590 0.077849
v -0.236900 0.745078 0.077849
v -0.236900 0.745078 -0.077849
v -0.242072 0.732590 -0.077849
v -0.226553 0.755425 0.077849
v -0.214065 0.760597 0.077849
v -0.214065 0.760597 -0.077849
v -0.226553 0.755425 -0.077849
v 0.214065 0.626108 -0.077849
v 0.226553 0.631280 -0.077849
v 0.226553 0.631280 0.077849
v 0.214065 0.626108 0.077849
v 0.236900 0.641627 -0.077849
v 0.242072 0.654115 -0.077849
v 0.242072 0.654115 0.077849
v 0.236900 0.641627 0.077849
v 0.242072 0.732590 -0.077849
v 0.236900 0.745078 -0.077849
v 0.236900 0.745078 0.077849
v 0.242072 0.732590 0.077849
v 0.226553 0.755425 -0.077849
v 0.214065 0.760597 -0.077849
v 0.214065 0.760597 0.077849
v 0.226553 0.755425 0.077849
vt 0.375000 0.125000
vt 0.625000 0.125000
vt 0.375000 0.625000
vt 0.625000 0.625000
vt 0.375000 0.750000
vt 0.625000 0.750000
vt 0.375000 1.000000
vt 0.625000 1.000000
vt 0.875000 0.125000
vt 0.875000 0.250000
vt 0.125000 0.125000
vt 0.125000 0.250000
vt 0.375000 0.682755
vt 0.625000 0.682755
vt 0.625000 0.250000
vt 0.592289 0.250000
vt 0.625000 0.500000
vt 0.625000 0.500000
vt 0.375000 0.250000
vt 0.375000 0.500000
vt 0.375000 0.500000
vt 0.625000 0.250000
vt 0.592289 0.500000
vt 0.375000 0.250000
vt 0.375000 0.500000
vt 0.375000 0.250000
vt 0.375000 0.500000
vt 0.375000 0.067245
vt 0.125000 0.000000
vt 0.875000 0.067245
vt 0.625000 0.000000
vt 0.375000 0.250000
vt 0.375000 0.250000
vt 0.375000 0.500000
vt 0.375000 0.250000
vt 0.375000 0.500000
vt 0.375000 0.007760
vt 0.125000 0.002586
vt 0.375000 0.000000
vt 0.375000 0.000000
vt 0.125000 0.014004
vt 0.375000 0.053241
vt 0.125000 0.059485
vt 0.375000 0.064659
vt 0.125000 0.067245
vt 0.125000 0.067245
vt 0.875000 0.000000
vt 0.875000 0.000000
vt 0.625000 0.002586
vt 0.875000 0.007760
vt 0.625000 0.014004
vt 0.875000 0.053241
vt 0.625000 0.059485
vt 0.875000 0.064659
vt 0.625000 0.067245
vt 0.625000 0.067245
vt 0.375000 0.250000
vt 0.375000 0.500000
vt 0.125000 0.007760
vt 0.375000 0.014004
vt 0.125000 0.000000
vt 0.375000 0.002586
vt 0.375000 0.059485
vt 0.125000 0.053241
vt 0.375000 0.067245
vt 0.125000 0.064659
vt 0.875000 0.002586
vt 0.625000 0.000000
vt 0.875000 0.014004
vt 0.625000 0.007760
vt 0.875000 0.059485
vt 0.625000 0.053241
vt 0.875000 0.067245
vt 0.625000 0.064659
vn 0.000000 0.000000 1.000000
vn 0.000000 0.000000 1.000000
vn 0.000000 0.000000 1.000000
vn 0.000000 0.000000 1.000000
vn 0.000000 0.000000 1.000000
vn 0.000000 0.000000 1.000000
vn 0.000000 0.000000 1.000000
vn 0.000000 0.000000 1.000000
vn -0.252622 0.967565 0.000000
vn 0.000000 1.000000 0.000000
vn 0.000000 1.000000 0.000000
vn -0.252622 0.967565 0.000000
vn 0.000000 0.000000 -1.000000
vn 0.000000 0.000000 -1.000000
vn 0.000000 0.000000 -1.000000
vn 0.000000 0.000000 -1.000000
vn 0.000000 0.000000 -1.000000
vn 0.000000 0.000000 -1.000000
vn 0.000000 0.000000 -1.000000
vn 0.000000 0.000000 -1.000000
vn 0.000000 -1.000000 0.000000
vn 0.000000 -1.000000 0.000000
vn 0.000000 -1.000000 0.000000
vn 0.000000 -1.000000 0.000000
vn 0.998387 -0.056772 0.000000
vn 0.998387 -0.056772 0.000000
vn 0.998387 0.056772 0.000000
vn 0.998387 0.056772 0.000000
vn 1.000000 0.000000 0.000000
vn 1.000000 0.000000 0.000000
vn 1.000000 0.000000 0.000000
vn 1.000000 0.000000 0.000000
vn -0.998387 -0.056772 0.000000
vn -0.998387 -0.056772 0.000000
vn -0.998387 0.056772 0.000000
vn -0.998387 0.056772 0.000000
vn -1.000000 0.000000 0.000000
vn -1.000000 0.000000 0.000000
vn -1.000000 0.000000 0.000000
vn -1.000000 0.000000 0.000000
vn 0.000000 0.000000 1.000000
vn 0.000000 0.000000 1.000000
vn 0.000000 0.000000 1.000000
vn 1.000000 0.000000 0.000000
vn 1.000000 0.000000 0.000000
vn 0.000000 0.000000 -1.000000
vn 0.000000 0.000000 -1.000000
vn 0.000000 0.000000 -1.000000
vn -0.999524 0.030841 0.000000
vn -0.999524 0.030841 0.000000
vn -0.999524 0.030841 0.000000
vn -0.999524 0.030841 0.000000
vn 0.000000 -1.000000 0.000000
vn 0.000000 -1.000000 0.000000
vn -0.038045 -0.999276 0.000000
vn -0.038045 -0.999276 0.000000
vn 0.000000 0.000000 1.000000
vn 0.000000 0.000000 1.000000
vn 0.000000 0.000000 1.000000
vn 0.000000 0.000000 1.000000
vn 0.000000 0.000000 1.000000
vn -0.463888 0.885894 0.000000
vn -0.463888 0.885894 0.000000
vn 0.000000 0.000000 -1.000000
vn 0.000000 0.000000 -1.000000
vn 0.000000 0.000000 -1.000000
vn 0.000000 0.000000 -1.000000
vn 0.000000 0.000000 -1.000000
vn -1.000000 0.000000 0.000000
vn -1.000000 0.000000 0.000000
vn 1.000000 0.000000 0.000000
vn 1.000000 0.000000 0.000000
vn -0.035051 -0.999386 0.000000
vn -0.035051 -0.999386 0.000000
vn 0.000000 0.000000 1.000000
vn 0.000000 0.000000 1.000000
vn 0.000000 0.000000 1.000000
vn 0.000000 0.000000 1.000000
vn 0.000000 0.000000 1.000000
vn 0.000000 0.000000 1.000000
vn 0.000000 0.000000 1.000000
vn 0.000000 0.000000 1.000000
vn 0.000000 1.000000 0.000000
vn 0.000000 1.000000 0.000000
vn -0.035051 0.999386 0.000000
vn -0.035051 0.999386 0.000000
vn 0.000000 0.000000 -1.000000
vn 0.000000 0.000000 -1.000000
vn 0.000000 0.000000 -1.000000
vn 0.000000 0.000000 -1.000000
vn 0.000000 0.000000 -1.000000
vn 0.000000 0.000000 -1.000000
vn 0.000000 0.000000 -1.000000
vn 0.000000 0.000000 -1.000000
vn 0.035051 -0.999386 0.000000
vn 0.035051 -0.999386 0.000000
vn 0.000000 0.000000 -1.000000
vn 0.000000 0.000000 -1.000000
vn 0.000000 0.000000 -1.000000
vn 0.000000 0.000000 -1.000000
vn 0.000000 0.000000 -1.000000
vn 0.000000 0.000000 -1.000000
vn 0.000000 0.000000 -1.000000
vn 0.000000 0.000000 -1.000000
vn 0.000000 1.000000 0.000000
vn 0.000000 1.000000 0.000000
vn 0.035051 0.999386 0.000000
vn 0.035051 0.999386 0.000000
vn 0.000000 0.000000 1.000000
vn 0.000000 0.000000 1.000000
vn 0.000000 0.000000 1.000000
vn 0.000000 0.000000 1.000000
vn 0.000000 0.000000 1.000000
vn 0.000000 0.000000 1.000000
vn 0.000000 0.000000 1.000000
vn 0.000000 0.000000 1.000000
vn 0.707106 0.707107 0.000000
vn 0.707106 0.707107 0.000000
vn 0.707106 0.707107 0.000000
vn 0.707106 0.707107 0.000000
vn -0.604168 -0.796857 0.000000
vn -0.604168 -0.796857 0.000000
vn -0.717928 -0.696117 0.000000
vn -0.717928 -0.696117 0.000000
vn -0.847450 0.530874 0.000000
vn -0.847450 0.530874 0.000000
vn -0.847450 0.530874 0.000000
vn -0.847450 0.530874 0.000000
vn -0.827061 -0.562113 0.000000
vn -0.827061 -0.562113 0.000000
vn -0.562114 -0.827060 0.000000
vn -0.562114 -0.827060 0.000000
vn -0.827061 0.562113 0.000000
vn -0.827061 0.562113 0.000000
vn -0.562114 0.827060 0.000000
vn -0.562114 0.827060 0.000000
vn 0.562114 -0.827060 0.000000
vn 0.562114 -0.827060 0.000000
vn 0.827061 -0.562113 0.000000
vn 0.827061 -0.562113 0.000000
vn 0.827061 0.562113 0.000000
vn 0.827061 0.562113 0.000000
vn 0.562114 0.827060 0.000000
vn 0.562114 0.827060 0.000000
s 1
g pCube1
usemtl initialShadingGroup
f 1/39/1 2/31/2 18/55/3 15/28/4
f 3/1/5 4/2/6 6/15/7 5/32/8
s 2
f 13/26/9 19/16/10 21/23/11 14/20/12
s 3
f 7/27/13 8/17/14 10/4/15 9/3/16
f 16/13/17 17/14/18 12/6/19 11/5/20
s 4
f 11/5/21 12/6/22 2/8/23 1/7/24
f 55/51/25 54/69/26 57/52/27 60/72/28
s 6
f 4/2/29 10/9/30 8/10/31 6/15/32
s 4
f 33/41/33 36/60/34 41/42/35 44/64/36
s 8
f 9/11/37 3/1/38 5/32/39 7/12/40
s 1
f 5/32/8 6/15/7 20/22/41 19/16/42 13/26/43
s 6
f 6/15/32 8/17/31 22/18/44 20/22/45
s 3
f 8/17/14 7/27/13 14/20/46 21/23/47 22/18/48
s off
f 24/36/49 23/35/50 25/19/51 27/25/52
s 9
f 7/27/53 5/32/54 29/33/55 32/58/56
s 1
f 5/32/8 13/26/43 26/24/57 25/19/58 23/35/59 30/57/60 29/33/61
s 2
f 13/26/9 14/20/12 28/21/62 26/24/63
s 3
f 14/20/46 7/27/13 32/58/64 31/34/65 24/36/66 27/25/67 28/21/68
s 8
f 16/45/69 15/28/70 3/1/38 9/11/37
s 3
f 9/3/16 10/4/15 17/14/18 16/13/17
s 6
f 18/55/71 17/30/72 10/9/30 4/2/29
s 1
f 15/28/4 18/55/3 4/2/6 3/1/5
s 4
f 11/29/21 1/39/24 39/40/73 38/61/74
s 1
f 1/39/1 15/28/4 46/65/75 45/44/76 42/63/77 41/42/78 36/60/79 35/37/80 40/62/81 39/40/82
s 4
f 15/28/83 16/45/84 47/46/85 46/65/86
s 3
f 16/45/17 11/29/20 38/61/87 37/38/88 34/59/89 33/41/90 44/64/91 43/43/92 48/66/93 47/46/94
s 4
f 2/31/23 12/47/22 49/48/95 52/68/96
s 3
f 12/47/19 17/30/18 62/73/97 61/54/98 58/71/99 57/52/100 54/69/101 53/50/102 50/67/103 49/48/104
s 4
f 17/30/105 18/55/106 63/56/107 62/73/108
s 1
f 18/55/3 2/31/2 52/68/109 51/49/110 56/70/111 55/51/112 60/72/113 59/53/114 64/74/115 63/56/116
s off
f 19/16/117 20/22/118 22/18/119 21/23/120
s 9
f 31/34/121 30/57/122 23/35/123 24/36/124
s off
f 25/19/125 26/24/126 28/21/127 27/25/128
s 4
f 35/37/129 34/59/130 37/38/131 40/62/132
f 43/43/133 42/63/134 45/44/135 48/66/136
f 51/49/137 50/67/138 53/50/139 56/70/140
f 59/53/141 58/71/142 61/54/143 64/74/144
s 9
f 29/33/55 30/57/122 31/34/121 32/58/56
s 4
f 33/41/33 34/59/130 35/37/129 36/60/34
f 37/38/131 38/61/74 39/40/73 40/62/132
f 41/42/35 42/63/134 43/43/133 44/64/36
f 45/44/135 46/65/86 47/46/85 48/66/136
f 49/48/95 50/67/138 51/49/137 52/68/96
f 53/50/139 54/69/26 55/51/25 56/70/140
f 57/52/27 58/71/142 59/53/141 60/72/28
f 61/54/143 62/73/108 63/56/107 64/74/144
