# This file uses centimeters as units for non-parametric coordinates.

mtllib number_zero.mtl
g default
v 0.283890 0.063484 0.142629
v 0.569149 0.063484 0.142629
v 0.283890 0.348743 0.142629
v 0.569149 0.348743 0.142629
v 0.283890 0.634002 0.142629
v 0.569149 0.634002 0.142629
v 0.283890 0.919260 0.142629
v 0.569149 0.919260 0.142629
v 0.283890 1.204519 0.142629
v 0.569149 1.204519 0.142629
v 0.283890 1.489778 0.142629
v 0.569149 1.489778 0.142629
v 0.283890 1.775036 0.142629
v 0.569149 1.775036 0.142629
v 0.283890 2.060295 0.142629
v 0.569149 2.060295 0.142629
v 0.283890 2.345554 0.142629
v 0.569149 2.345554 0.142629
v 0.283890 2.345554 -0.142629
v 0.569149 2.345554 -0.142629
v 0.283890 2.060295 -0.142629
v 0.569149 2.060295 -0.142629
v 0.283890 1.775036 -0.142629
v 0.569149 1.775036 -0.142629
v 0.283890 1.489778 -0.142629
v 0.569149 1.489778 -0.142629
v 0.283890 1.204519 -0.142629
v 0.569149 1.204519 -0.142629
v 0.283890 0.919260 -0.142629
v 0.569149 0.919260 -0.142629
v 0.283890 0.634002 -0.142629
v 0.569149 0.634002 -0.142629
v 0.283890 0.348743 -0.142629
v 0.569149 0.348743 -0.142629
v 0.283890 0.063484 -0.142629
v 0.569149 0.063484 -0.142629
v -0.485374 0.063484 -0.142629
v -0.485374 0.063484 0.142629
v -0.485374 0.348743 0.142629
v -0.485374 0.348743 -0.142629
v -0.485374 2.060295 -0.142629
v -0.485374 2.060295 0.142629
v -0.485374 2.345554 0.142629
v -0.485374 2.345554 -0.142629
v -0.770633 0.063484 0.142629
v -0.770633 0.348743 0.142629
v -0.770633 0.634002 0.142629
v -0.485374 0.634002 0.142629
v -0.770633 0.919260 0.142629
v -0.485374 0.919260 0.142629
v -0.770633 1.204519 0.142629
v -0.485374 1.204519 0.142629
v -0.770633 1.489778 0.142629
v -0.485374 1.489778 0.142629
v -0.770633 1.775036 0.142629
v -0.485374 1.775036 0.142629
v -0.770633 2.060295 0.142629
v -0.770633 2.345554 0.142629
v -0.770633 2.345554 -0.142629
v -0.770633 2.060295 -0.142629
v -0.770633 1.775036 -0.142629
v -0.485374 1.775036 -0.142629
v -0.770633 1.489778 -0.142629
v -0.485374 1.489778 -0.142629
v -0.770633 1.204519 -0.142629
v -0.485374 1.204519 -0.142629
v -0.770633 0.919260 -0.142629
v -0.485374 0.919260 -0.142629
v -0.770633 0.634002 -0.142629
v -0.485374 0.634002 -0.142629
v -0.770633 0.348743 -0.142629
v -0.770633 0.063484 -0.142629
vt 0.375000 0.000000
vt 0.625000 0.000000
vt 0.375000 0.031250
vt 0.625000 0.031250
vt 0.375000 0.062500
vt 0.625000 0.062500
vt 0.375000 0.093750
vt 0.625000 0.093750
vt 0.375000 0.125000
vt 0.625000 0.125000
vt 0.375000 0.156250
vt 0.625000 0.156250
vt 0.375000 0.187500
vt 0.625000 0.187500
vt 0.375000 0.218750
vt 0.625000 0.218750
vt 0.375000 0.250000
vt 0.625000 0.250000
vt 0.375000 0.500000
vt 0.625000 0.500000
vt 0.375000 0.531250
vt 0.625000 0.531250
vt 0.375000 0.562500
vt 0.625000 0.562500
vt 0.375000 0.593750
vt 0.625000 0.593750
vt 0.375000 0.625000
vt 0.625000 0.625000
vt 0.375000 0.656250
vt 0.625000 0.656250
vt 0.375000 0.687500
vt 0.625000 0.687500
vt 0.375000 0.718750
vt 0.625000 0.718750
vt 0.375000 0.750000
vt 0.625000 0.750000
vt 0.375000 1.000000
vt 0.625000 1.000000
vt 0.875000 0.000000
vt 0.875000 0.031250
vt 0.875000 0.062500
vt 0.875000 0.093750
vt 0.875000 0.125000
vt 0.875000 0.156250
vt 0.875000 0.187500
vt 0.875000 0.218750
vt 0.875000 0.250000
vt 0.125000 0.000000
vt 0.125000 0.031250
vt 0.125000 0.062500
vt 0.125000 0.093750
vt 0.125000 0.125000
vt 0.125000 0.156250
vt 0.125000 0.187500
vt 0.125000 0.218750
vt 0.125000 0.250000
vt 0.125005 0.000000
vt 0.374996 0.000001
vt 0.374995 0.031249
vt 0.125004 0.031249
vt 0.125005 0.218750
vt 0.374996 0.218751
vt 0.374996 0.249999
vt 0.125004 0.249999
vt 0.375000 0.000000
vt 0.624999 0.000001
vt 0.625000 0.031250
vt 0.375000 0.031250
vt 0.625000 0.062500
vt 0.375000 0.062500
vt 0.625000 0.093750
vt 0.375000 0.093750
vt 0.625000 0.125000
vt 0.375000 0.125000
vt 0.625000 0.156250
vt 0.375000 0.156250
vt 0.625000 0.187500
vt 0.375000 0.187500
vt 0.624999 0.218750
vt 0.375000 0.218750
vt 0.624997 0.250001
vt 0.375000 0.250000
vt 0.624994 0.499995
vt 0.375000 0.500000
vt 0.624992 0.531249
vt 0.375000 0.531250
vt 0.625000 0.562500
vt 0.375000 0.562500
vt 0.625000 0.593750
vt 0.375000 0.593750
vt 0.625000 0.625000
vt 0.375000 0.625000
vt 0.625000 0.656250
vt 0.375000 0.656250
vt 0.625000 0.687500
vt 0.375000 0.687500
vt 0.624994 0.718750
vt 0.375000 0.718750
vt 0.624993 0.750005
vt 0.375000 0.750000
vt 0.624986 0.999989
vt 0.375000 1.000000
vt 0.874986 0.000002
vt 0.874994 0.031250
vt 0.875000 0.062500
vt 0.875000 0.093750
vt 0.875000 0.125000
vt 0.875000 0.156250
vt 0.875000 0.187500
vt 0.874991 0.218750
vt 0.874987 0.249998
vt 0.125000 0.000000
vt 0.125000 0.031250
vt 0.125000 0.062500
vt 0.125000 0.093750
vt 0.125000 0.125000
vt 0.125000 0.156250
vt 0.125000 0.187500
vt 0.125000 0.218750
vt 0.125000 0.250000
vn 0.000000 0.000000 1.000000
vn 0.000000 0.000000 1.000000
vn 0.000000 0.000000 1.000000
vn 0.000000 0.000000 1.000000
vn 0.000000 0.000000 1.000000
vn 0.000000 0.000000 1.000000
vn 0.000000 0.000000 1.000000
vn 0.000000 0.000000 1.000000
vn 0.000000 0.000000 1.000000
vn 0.000000 0.000000 1.000000
vn 0.000000 0.000000 1.000000
vn 0.000000 0.000000 1.000000
vn 0.000000 0.000000 1.000000
vn 0.000000 0.000000 1.000000
vn 0.000000 0.000000 1.000000
vn 0.000000 0.000000 1.000000
vn 0.000000 0.000000 1.000000
vn 0.000000 0.000000 1.000000
vn 0.000000 1.000000 0.000000
vn 0.000000 1.000000 0.000000
vn 0.000000 1.000000 0.000000
vn 0.000000 1.000000 0.000000
vn 0.000000 0.000000 -1.000000
vn 0.000000 0.000000 -1.000000
vn 0.000000 0.000000 -1.000000
vn 0.000000 0.000000 -1.000000
vn 0.000000 0.000000 -1.000000
vn 0.000000 0.000000 -1.000000
vn 0.000000 0.000000 -1.000000
vn 0.000000 0.000000 -1.000000
vn 0.000000 0.000000 -1.000000
vn 0.000000 0.000000 -1.000000
vn 0.000000 0.000000 -1.000000
vn 0.000000 0.000000 -1.000000
vn 0.000000 0.000000 -1.000000
vn 0.000000 0.000000 -1.000000
vn 0.000000 0.000000 -1.000000
vn 0.000000 0.000000 -1.000000
vn 0.000000 0.000000 -1.000000
vn 0.000000 0.000000 -1.000000
vn 0.000000 -1.000000 0.000000
vn 0.000000 -1.000000 0.000000
vn 0.000000 -1.000000 0.000000
vn 0.000000 -1.000000 0.000000
vn 1.000000 0.000000 0.000000
vn 1.000000 0.000000 0.000000
vn 1.000000 0.000000 0.000000
vn 1.000000 0.000000 0.000000
vn 1.000000 0.000000 0.000000
vn 1.000000 0.000000 0.000000
vn 1.000000 0.000000 0.000000
vn 1.000000 0.000000 0.000000
vn 1.000000 0.000000 0.000000
vn 1.000000 0.000000 0.000000
vn 1.000000 0.000000 0.000000
vn 1.000000 0.000000 0.000000
vn 1.000000 0.000000 0.000000
vn 1.000000 0.000000 0.000000
vn 1.000000 0.000000 0.000000
vn 1.000000 0.000000 0.000000
vn 1.000000 0.000000 0.000000
vn 1.000000 0.000000 0.000000
vn -1.000000 0.000000 0.000000
vn -1.000000 0.000000 0.000000
vn -1.000000 0.000000 0.000000
vn -1.000000 0.000000 0.000000
vn -1.000000 0.000000 0.000000
vn -1.000000 0.000000 0.000000
vn -1.000000 0.000000 0.000000
vn -1.000000 0.000000 0.000000
vn -1.000000 0.000000 0.000000
vn -1.000000 0.000000 0.000000
vn -1.000000 0.000000 0.000000
vn -1.000000 0.000000 0.000000
vn -1.000000 0.000000 0.000000
vn -1.000000 0.000000 0.000000
vn -1.000000 0.000000 0.000000
vn -1.000000 0.000000 0.000000
vn -1.000000 0.000000 0.000000
vn -1.000000 0.000000 0.000000
vn -1.000000 0.000000 0.000000
vn -1.000000 0.000000 0.000000
vn -1.000000 0.000000 0.000000
vn -1.000000 0.000000 0.000000
vn 0.000000 -1.000000 0.000000
vn 0.000000 -1.000000 0.000000
vn 0.000000 0.000000 1.000000
vn 0.000000 0.000000 1.000000
vn 0.000000 1.000000 0.000000
vn 0.000000 1.000000 0.000000
vn 0.000000 1.000000 0.000000
vn 0.000000 1.000000 0.000000
vn 0.000000 0.000000 -1.000000
vn 0.000000 0.000000 -1.000000
vn 0.000000 -1.000000 0.000000
vn 0.000000 -1.000000 0.000000
vn 0.000000 -1.000000 0.000000
vn 0.000000 -1.000000 0.000000
vn 0.000000 0.000000 1.000000
vn 0.000000 0.000000 1.000000
vn 0.000000 1.000000 0.000000
vn 0.000000 1.000000 0.000000
vn 0.000000 0.000000 -1.000000
vn 0.000000 0.000000 -1.000000
vn 0.000000 0.000000 1.000000
vn 0.000000 0.000000 1.000000
vn 0.000000 0.000000 1.000000
vn 0.000000 0.000000 1.000000
vn 0.000000 0.000000 1.000000
vn 0.000000 0.000000 1.000000
vn 0.000000 0.000000 1.000000
vn 0.000000 0.000000 1.000000
vn 0.000000 0.000000 1.000000
vn 0.000000 0.000000 1.000000
vn 0.000000 0.000000 1.000000
vn 0.000000 0.000000 1.000000
vn 0.000000 0.000000 1.000000
vn 0.000000 0.000000 1.000000
vn 0.000000 0.000000 1.000000
vn 0.000000 0.000000 1.000000
vn 0.000000 0.000000 1.000000
vn 0.000000 0.000000 1.000000
vn 0.000000 1.000000 0.000000
vn 0.000000 1.000000 0.000000
vn 0.000000 1.000000 0.000000
vn 0.000000 1.000000 0.000000
vn 0.000000 0.000000 -1.000000
vn 0.000000 0.000000 -1.000000
vn 0.000000 0.000000 -1.000000
vn 0.000000 0.000000 -1.000000
vn 0.000000 0.000000 -1.000000
vn 0.000000 0.000000 -1.000000
vn 0.000000 0.000000 -1.000000
vn 0.000000 0.000000 -1.000000
vn 0.000000 0.000000 -1.000000
vn 0.000000 0.000000 -1.000000
vn 0.000000 0.000000 -1.000000
vn 0.000000 0.000000 -1.000000
vn 0.000000 0.000000 -1.000000
vn 0.000000 0.000000 -1.000000
vn 0.000000 0.000000 -1.000000
vn 0.000000 0.000000 -1.000000
vn 0.000000 0.000000 -1.000000
vn 0.000000 0.000000 -1.000000
vn 0.000000 -1.000000 0.000000
vn 0.000000 -1.000000 0.000000
vn 0.000000 -1.000000 0.000000
vn 0.000000 -1.000000 0.000000
vn 1.000000 0.000000 0.000000
vn 1.000000 0.000000 0.000000
vn 1.000000 0.000000 0.000000
vn 1.000000 0.000000 0.000000
vn 1.000000 0.000000 0.000000
vn 1.000000 0.000000 0.000000
vn 1.000000 0.000000 0.000000
vn 1.000000 0.000000 0.000000
vn 1.000000 0.000000 0.000000
vn 1.000000 0.000000 0.000000
vn 1.000000 0.000000 0.000000
vn 1.000000 0.000000 0.000000
vn 1.000000 0.000000 0.000000
vn 1.000000 0.000000 0.000000
vn 1.000000 0.000000 0.000000
vn 1.000000 0.000000 0.000000
vn 1.000000 0.000000 0.000000
vn 1.000000 0.000000 0.000000
vn 1.000000 0.000000 0.000000
vn 1.000000 0.000000 0.000000
vn 1.000000 0.000000 0.000000
vn 1.000000 0.000000 0.000000
vn -1.000000 0.000000 0.000000
vn -1.000000 0.000000 0.000000
vn -1.000000 0.000000 0.000000
vn -1.000000 0.000000 0.000000
vn -1.000000 0.000000 0.000000
vn -1.000000 0.000000 0.000000
vn -1.000000 0.000000 0.000000
vn -1.000000 0.000000 0.000000
vn -1.000000 0.000000 0.000000
vn -1.000000 0.000000 0.000000
vn -1.000000 0.000000 0.000000
vn -1.000000 0.000000 0.000000
vn -1.000000 0.000000 0.000000
vn -1.000000 0.000000 0.000000
vn -1.000000 0.000000 0.000000
vn -1.000000 0.000000 0.000000
vn -1.000000 0.000000 0.000000
vn -1.000000 0.000000 0.000000
s 1
g pCube2
usemtl initialShadingGroup
f 1/1/1 2/2/2 4/4/3 3/3/4
f 3/3/4 4/4/3 6/6/5 5/5/6
f 5/5/6 6/6/5 8/8/7 7/7/8
f 7/7/8 8/8/7 10/10/9 9/9/10
f 9/9/10 10/10/9 12/12/11 11/11/12
f 11/11/12 12/12/11 14/14/13 13/13/14
f 13/13/14 14/14/13 16/16/15 15/15/16
f 15/15/16 16/16/15 18/18/17 17/17/18
s 2
f 17/17/19 18/18/20 20/20/21 19/19/22
s 3
f 19/19/23 20/20/24 22/22/25 21/21/26
f 21/21/26 22/22/25 24/24/27 23/23/28
f 23/23/28 24/24/27 26/26/29 25/25/30
f 25/25/30 26/26/29 28/28/31 27/27/32
f 27/27/32 28/28/31 30/30/33 29/29/34
f 29/29/34 30/30/33 32/32/35 31/31/36
f 31/31/36 32/32/35 34/34/37 33/33/38
f 33/33/38 34/34/37 36/36/39 35/35/40
s 4
f 35/35/41 36/36/42 2/38/43 1/37/44
s 5
f 2/2/45 36/39/46 34/40/47 4/4/48
f 4/4/48 34/40/47 32/41/49 6/6/50
f 6/6/50 32/41/49 30/42/51 8/8/52
f 8/8/52 30/42/51 28/43/53 10/10/54
f 10/10/54 28/43/53 26/44/55 12/12/56
f 12/12/56 26/44/55 24/45/57 14/14/58
f 14/14/58 24/45/57 22/46/59 16/16/60
f 16/16/60 22/46/59 20/47/61 18/18/62
s off
f 37/57/63 38/58/64 39/59/65 40/60/66
s 6
f 33/49/67 3/3/68 5/5/69 31/50/70
f 31/50/70 5/5/69 7/7/71 29/51/72
f 29/51/72 7/7/71 9/9/73 27/52/74
f 27/52/74 9/9/73 11/11/75 25/53/76
f 25/53/76 11/11/75 13/13/77 23/54/78
f 23/54/78 13/13/77 15/15/79 21/55/80
s off
f 41/61/81 42/62/82 43/63/83 44/64/84
s 4
f 35/48/41 1/1/44 38/58/85 37/57/86
s 1
f 1/1/1 3/3/4 39/59/87 38/58/88
s off
f 3/3/89 33/49/90 40/60/91 39/59/92
s 3
f 33/49/38 35/48/40 37/57/93 40/60/94
s off
f 21/55/95 15/15/96 42/62/97 41/61/98
s 1
f 15/15/16 17/17/18 43/63/99 42/62/100
s 2
f 17/17/19 19/56/22 44/64/101 43/63/102
s 3
f 19/56/23 21/55/26 41/61/103 44/64/104
s 7
f 45/65/105 38/66/106 39/67/107 46/68/108
f 46/68/108 39/67/107 48/69/109 47/70/110
f 47/70/110 48/69/109 50/71/111 49/72/112
f 49/72/112 50/71/111 52/73/113 51/74/114
f 51/74/114 52/73/113 54/75/115 53/76/116
f 53/76/116 54/75/115 56/77/117 55/78/118
f 55/78/118 56/77/117 42/79/119 57/80/120
f 57/80/120 42/79/119 43/81/121 58/82/122
s off
f 58/82/123 43/81/124 44/83/125 59/84/126
s 8
f 59/84/127 44/83/128 41/85/129 60/86/130
f 60/86/130 41/85/129 62/87/131 61/88/132
f 61/88/132 62/87/131 64/89/133 63/90/134
f 63/90/134 64/89/133 66/91/135 65/92/136
f 65/92/136 66/91/135 68/93/137 67/94/138
f 67/94/138 68/93/137 70/95/139 69/96/140
f 69/96/140 70/95/139 40/97/141 71/98/142
f 71/98/142 40/97/141 37/99/143 72/100/144
s off
f 72/100/145 37/99/146 38/101/147 45/102/148
f 38/66/149 37/103/150 40/104/151 39/67/152
s 9
f 39/67/153 40/104/154 70/105/155 48/69/156
f 48/69/156 70/105/155 68/106/157 50/71/158
f 50/71/158 68/106/157 66/107/159 52/73/160
f 52/73/160 66/107/159 64/108/161 54/75/162
f 54/75/162 64/108/161 62/109/163 56/77/164
f 56/77/164 62/109/163 41/110/165 42/79/166
s off
f 42/79/167 41/110/168 44/111/169 43/81/170
s 10
f 72/112/171 45/65/172 46/68/173 71/113/174
f 71/113/174 46/68/173 47/70/175 69/114/176
f 69/114/176 47/70/175 49/72/177 67/115/178
f 67/115/178 49/72/177 51/74/179 65/116/180
f 65/116/180 51/74/179 53/76/181 63/117/182
f 63/117/182 53/76/181 55/78/183 61/118/184
f 61/118/184 55/78/183 57/80/185 60/119/186
f 60/119/186 57/80/185 58/82/187 59/120/188
